<svg id="svg" version="1.1" xmlns="http://www.w3.org/2000/svg" xmlns:xlink="http://www.w3.org/1999/xlink" width="400" height="400" viewBox="0, 0, 400,400"><g id="svgg"><path id="path0" d="M190.725 7.653 C 96.610 11.950,18.860 85.178,8.766 179.031 C 3.717 225.975,15.916 273.045,43.003 311.135 C 46.926 316.651,47.843 317.677,45.332 313.741 C 40.381 305.981,36.078 298.025,31.669 288.483 C 30.014 284.901,28.002 280.565,27.197 278.848 C 12.190 246.840,6.687 207.074,12.263 170.929 C 28.321 66.835,126.370 -4.518,230.310 12.249 C 341.958 30.260,413.473 141.691,383.290 250.617 C 378.075 269.438,366.041 296.217,354.994 313.582 C 352.911 316.858,353.990 315.637,357.430 310.828 C 376.222 284.556,388.208 252.478,391.585 219.419 C 402.374 113.796,325.555 19.417,219.857 8.437 C 210.394 7.454,200.763 7.195,190.725 7.653 M202.701 92.772 C 202.701 92.947,202.480 93.090,202.210 93.090 C 201.941 93.090,200.584 94.269,199.195 95.711 C 190.055 105.198,191.081 104.841,186.414 100.157 C 183.223 96.954,181.732 95.305,181.732 94.980 C 181.732 94.468,180.899 93.725,180.325 93.725 C 180.050 93.725,179.825 93.582,179.825 93.407 C 179.825 93.233,179.253 93.090,178.554 93.090 C 177.855 93.090,177.284 93.233,177.284 93.407 C 177.284 93.582,177.059 93.725,176.784 93.725 C 176.209 93.725,175.377 94.469,175.377 94.982 C 175.377 95.363,174.381 96.481,171.325 99.528 C 170.231 100.618,167.568 103.278,165.407 105.440 C 160.061 110.787,154.128 116.720,147.537 123.311 C 142.406 128.441,137.247 133.439,137.082 133.439 C 136.693 133.439,135.346 135.031,135.346 135.490 C 135.346 135.760,135.126 135.981,134.858 135.981 C 134.266 135.981,133.789 136.405,129.140 141.064 C 127.135 143.074,124.512 145.701,123.311 146.902 C 122.110 148.103,119.483 150.730,117.473 152.739 C 115.464 154.749,112.837 157.376,111.636 158.577 C 106.550 163.663,101.974 168.238,99.523 170.690 C 98.082 172.132,95.437 174.777,93.646 176.568 C 91.855 178.359,89.210 181.004,87.768 182.446 C 82.068 188.149,79.734 190.310,79.274 190.310 C 79.009 190.310,78.793 190.530,78.793 190.800 C 78.793 191.388,78.569 191.669,76.013 194.295 C 74.921 195.417,74.027 196.480,74.027 196.658 C 74.027 196.836,73.802 196.982,73.528 196.982 C 73.046 196.982,72.121 197.698,72.121 198.071 C 72.121 198.171,78.697 198.253,86.736 198.253 L 101.350 198.253 101.350 234.009 C 101.350 257.300,101.461 269.898,101.667 270.148 C 101.841 270.359,102.399 270.997,102.906 271.565 L 103.829 272.597 130.707 272.597 L 157.585 272.597 157.585 235.743 L 157.585 198.888 178.872 198.888 L 200.159 198.888 200.159 235.743 L 200.159 272.597 251.946 272.597 C 286.259 272.597,303.733 272.490,303.733 272.280 C 303.733 272.105,303.886 271.962,304.074 271.962 C 304.580 271.962,305.322 271.125,305.322 270.555 C 305.322 270.280,305.465 270.056,305.639 270.056 C 305.849 270.056,305.957 258.194,305.957 235.107 L 305.957 200.159 302.621 200.159 L 299.285 200.159 299.285 233.042 L 299.285 265.925 289.913 265.925 L 280.540 265.925 280.540 262.113 C 280.540 259.783,280.664 258.300,280.858 258.300 C 281.067 258.300,281.176 248.398,281.176 229.230 L 281.176 200.159 277.522 200.159 L 273.868 200.159 273.868 233.042 L 273.868 265.925 264.972 265.925 L 256.076 265.925 256.076 232.089 L 256.076 198.253 270.532 198.253 C 284.608 198.253,284.988 198.236,284.988 197.639 C 284.988 197.301,284.702 196.934,284.353 196.823 C 284.003 196.712,283.717 196.488,283.717 196.325 C 283.717 196.162,283.496 196.029,283.226 196.029 C 282.956 196.029,282.384 195.678,281.955 195.249 C 281.526 194.820,281.176 194.248,281.176 193.978 C 281.176 193.708,280.961 193.487,280.699 193.487 C 280.434 193.487,280.222 193.204,280.222 192.851 C 280.222 192.428,280.011 192.216,279.587 192.216 C 279.221 192.216,278.952 192.004,278.952 191.717 C 278.952 191.139,278.207 190.310,277.689 190.310 C 277.208 190.310,275.779 188.851,275.757 188.339 C 275.747 188.112,275.027 187.284,274.157 186.497 C 272.410 184.919,270.650 183.167,264.980 177.363 C 262.889 175.222,260.960 173.471,260.692 173.471 C 260.425 173.471,260.207 173.257,260.207 172.994 C 260.207 172.732,259.956 172.510,259.651 172.500 C 259.345 172.491,258.451 171.770,257.665 170.899 C 256.878 170.028,254.323 167.408,251.987 165.077 C 249.650 162.747,247.024 160.125,246.150 159.251 C 245.276 158.377,242.631 155.732,240.272 153.373 C 237.913 151.014,235.268 148.369,234.395 147.496 C 233.521 146.622,230.876 143.977,228.517 141.618 C 226.158 139.259,223.513 136.614,222.639 135.740 C 221.766 134.867,219.121 132.222,216.762 129.863 C 214.403 127.504,211.776 124.877,210.925 124.026 C 210.074 123.175,207.450 120.548,205.095 118.189 C 199.763 112.848,199.343 112.470,198.741 112.470 C 198.464 112.470,198.253 112.194,198.253 111.835 C 198.253 111.419,198.041 111.199,197.639 111.199 C 197.301 111.199,196.934 110.913,196.823 110.564 C 196.712 110.214,196.488 109.929,196.325 109.929 C 195.890 109.929,195.964 108.392,196.426 107.829 C 198.789 104.950,202.804 101.350,203.653 101.350 C 204.693 101.350,211.279 107.658,211.279 108.654 C 211.279 109.172,215.977 113.741,216.511 113.741 C 216.772 113.741,217.883 114.671,218.978 115.808 C 220.073 116.945,222.738 119.644,224.900 121.806 C 227.062 123.968,229.670 126.576,230.697 127.602 C 231.723 128.628,234.386 131.291,236.615 133.520 C 238.844 135.749,241.489 138.394,242.492 139.398 C 243.496 140.402,246.105 143.010,248.289 145.195 C 250.473 147.379,253.137 150.042,254.207 151.113 C 255.278 152.184,257.941 154.847,260.126 157.031 C 265.115 162.019,267.447 164.352,272.436 169.341 C 274.620 171.525,277.301 174.206,278.394 175.299 C 279.487 176.393,282.132 179.037,284.271 181.177 C 286.411 183.317,289.056 185.959,290.149 187.049 C 292.752 189.644,294.202 191.205,294.202 191.413 C 294.202 191.505,291.843 191.581,288.959 191.581 C 286.076 191.581,283.717 191.660,283.717 191.757 C 283.717 191.854,284.575 192.776,285.624 193.805 C 286.672 194.834,287.530 195.898,287.530 196.170 C 287.530 196.442,287.666 196.664,287.833 196.664 C 288.000 196.664,288.494 197.021,288.931 197.458 L 289.725 198.253 300.383 198.253 C 310.974 198.253,311.668 198.186,310.355 197.290 C 309.979 197.033,308.479 195.643,307.024 194.202 C 305.568 192.760,304.303 191.581,304.211 191.581 C 304.042 191.581,299.570 187.259,294.758 182.446 C 293.316 181.004,290.671 178.359,288.880 176.568 C 287.089 174.777,284.444 172.132,283.002 170.690 C 277.748 165.434,264.113 151.799,258.857 146.545 C 257.415 145.103,254.770 142.458,252.979 140.667 C 251.189 138.876,248.544 136.231,247.102 134.789 C 245.660 133.348,243.015 130.703,241.224 128.912 C 239.433 127.121,236.788 124.476,235.346 123.034 C 233.904 121.592,231.262 118.947,229.474 117.156 C 227.687 115.365,225.087 112.828,223.697 111.517 C 220.379 108.388,220.375 108.430,224.316 104.516 C 228.256 100.604,228.594 100.533,231.050 103.100 C 231.971 104.063,234.779 106.905,237.290 109.417 C 239.801 111.928,242.427 114.555,243.126 115.254 C 243.825 115.952,246.470 118.597,249.004 121.131 C 251.538 123.665,254.183 126.310,254.882 127.009 C 255.580 127.708,258.226 130.353,260.760 132.886 C 265.970 138.095,266.852 138.978,272.833 144.959 C 275.192 147.318,277.837 149.963,278.711 150.836 C 279.585 151.710,282.230 154.355,284.589 156.714 C 290.569 162.695,291.452 163.578,296.661 168.788 C 299.195 171.322,301.839 173.967,302.538 174.666 C 303.237 175.365,305.863 177.991,308.374 180.502 C 310.885 183.013,313.548 185.675,314.293 186.417 C 320.318 192.423,320.315 192.216,314.376 192.216 C 311.843 192.216,309.770 192.294,309.770 192.390 C 309.770 192.872,314.334 196.982,314.869 196.982 C 315.277 196.982,315.488 197.199,315.488 197.617 C 315.488 198.238,315.700 198.253,325.020 198.253 C 331.162 198.253,334.551 198.140,334.551 197.935 C 334.551 197.760,334.408 197.617,334.234 197.617 C 334.059 197.617,333.916 197.469,333.916 197.289 C 333.916 196.854,331.808 194.758,331.370 194.758 C 330.923 194.758,329.468 193.299,329.468 192.851 C 329.468 192.409,328.015 190.945,327.576 190.945 C 327.393 190.945,327.234 190.695,327.223 190.389 C 327.211 190.083,326.064 188.761,324.675 187.450 C 323.285 186.140,320.685 183.602,318.897 181.811 C 317.110 180.020,314.468 177.375,313.026 175.933 C 310.080 172.989,305.341 168.250,300.953 163.861 C 299.337 162.244,296.692 159.599,295.076 157.983 C 293.459 156.367,290.814 153.722,289.198 152.105 C 287.582 150.489,284.937 147.844,283.320 146.227 C 281.704 144.611,279.059 141.966,277.443 140.350 C 275.827 138.733,273.182 136.088,271.565 134.472 C 269.949 132.856,267.303 130.211,265.687 128.594 C 264.071 126.978,261.283 124.190,259.492 122.400 C 257.701 120.609,255.056 117.964,253.614 116.522 C 252.172 115.080,249.527 112.435,247.736 110.644 C 245.945 108.853,243.157 106.065,241.541 104.448 C 239.925 102.832,237.280 100.194,235.664 98.587 C 234.047 96.980,232.224 95.092,231.612 94.392 C 231.001 93.692,230.250 93.112,229.944 93.104 C 229.639 93.096,229.388 92.947,229.388 92.772 C 229.388 92.597,228.959 92.454,228.435 92.454 C 227.911 92.454,227.482 92.597,227.482 92.772 C 227.482 92.947,227.262 93.090,226.993 93.090 C 226.725 93.090,225.224 94.412,223.658 96.029 C 220.169 99.631,218.610 101.196,217.160 102.551 L 216.044 103.592 214.928 102.551 C 213.064 100.812,209.317 97.032,207.466 95.024 C 206.171 93.618,205.493 93.123,204.845 93.109 C 204.365 93.098,203.971 92.947,203.971 92.772 C 203.971 92.597,203.685 92.454,203.336 92.454 C 202.986 92.454,202.701 92.597,202.701 92.772 M181.414 104.210 C 182.797 105.608,184.149 106.751,184.418 106.751 C 184.697 106.751,184.909 107.026,184.909 107.387 C 184.909 107.740,185.120 108.022,185.385 108.022 C 185.647 108.022,185.862 108.241,185.862 108.509 C 185.862 109.058,187.883 111.199,188.400 111.199 C 189.118 111.199,198.253 120.334,198.253 121.052 C 198.253 121.599,202.673 125.812,203.272 125.836 C 203.569 125.848,205.028 127.137,206.513 128.701 C 207.998 130.264,210.536 132.864,212.153 134.477 C 213.769 136.091,216.414 138.733,218.031 140.350 C 219.647 141.966,222.292 144.611,223.908 146.227 C 225.525 147.844,228.170 150.489,229.786 152.105 C 236.727 159.048,238.766 161.084,241.541 163.844 C 243.157 165.451,244.980 167.339,245.592 168.039 C 246.203 168.739,246.885 169.318,247.106 169.326 C 247.505 169.341,249.489 171.169,253.933 175.617 C 261.443 183.135,263.655 185.333,266.083 187.693 C 270.214 191.708,270.385 191.581,260.842 191.581 C 255.759 191.581,252.899 191.695,252.899 191.898 C 252.899 192.073,252.678 192.216,252.408 192.216 C 252.138 192.216,251.566 192.567,251.137 192.996 C 250.708 193.425,250.357 193.997,250.357 194.267 C 250.357 194.546,250.083 194.758,249.722 194.758 C 249.090 194.758,249.087 194.970,249.087 230.342 L 249.087 265.925 228.118 265.925 L 207.149 265.925 207.149 230.492 L 207.149 195.059 205.727 193.637 L 204.306 192.216 178.872 192.216 L 153.438 192.216 152.017 193.637 L 150.596 195.059 150.596 230.492 L 150.596 265.925 129.309 265.925 L 108.022 265.925 108.022 229.071 L 108.022 192.216 106.751 192.216 C 106.052 192.216,105.481 192.073,105.481 191.898 C 105.481 191.724,104.766 191.581,103.892 191.581 C 103.018 191.581,102.303 191.724,102.303 191.898 C 102.303 192.073,101.803 192.216,101.191 192.216 C 100.580 192.216,100.079 192.073,100.079 191.898 C 100.079 191.698,97.908 191.581,94.202 191.581 C 90.969 191.581,88.324 191.505,88.324 191.413 C 88.324 191.205,89.774 189.644,92.377 187.049 C 93.470 185.959,96.151 183.280,98.335 181.096 C 100.520 178.912,103.128 176.303,104.132 175.299 C 105.136 174.296,107.744 171.687,109.929 169.502 C 114.963 164.467,117.517 161.913,122.082 157.348 C 124.092 155.339,126.737 152.694,127.960 151.470 C 129.183 150.247,131.828 147.602,133.837 145.593 C 135.847 143.583,138.492 140.938,139.715 139.715 C 140.938 138.492,143.708 135.729,145.870 133.576 C 148.032 131.423,150.302 129.088,150.913 128.388 C 151.525 127.687,152.209 127.108,152.434 127.100 C 152.944 127.081,153.549 126.535,158.032 122.042 C 162.280 117.784,164.793 115.271,169.699 110.372 C 171.686 108.388,174.384 105.627,175.695 104.237 C 178.625 101.130,178.368 101.131,181.414 104.210 M174.742 120.124 C 173.956 120.995,172.418 122.595,171.325 123.681 C 170.231 124.767,167.568 127.424,165.406 129.586 C 163.245 131.748,160.618 134.375,159.569 135.423 C 158.521 136.472,155.876 139.117,153.692 141.301 C 148.388 146.604,146.679 148.314,141.618 153.374 C 139.259 155.733,136.614 158.377,135.740 159.251 C 134.867 160.125,132.204 162.754,129.824 165.093 C 127.444 167.432,125.496 169.569,125.496 169.841 C 125.496 170.113,124.782 171.031,123.908 171.882 C 123.034 172.733,122.319 173.521,122.319 173.632 C 122.319 173.973,123.205 174.742,123.599 174.742 C 124.022 174.742,125.814 176.568,125.814 176.999 C 125.814 177.156,126.100 177.284,126.450 177.284 C 126.799 177.284,127.085 177.141,127.085 176.966 C 127.085 176.791,127.302 176.648,127.568 176.648 C 128.070 176.648,129.524 175.327,134.474 170.373 C 137.434 167.411,141.448 163.396,146.862 157.983 C 148.479 156.367,151.124 153.722,152.740 152.105 C 154.356 150.489,157.001 147.844,158.618 146.228 C 164.290 140.559,166.164 138.528,166.164 138.051 C 166.164 137.786,166.434 137.569,166.765 137.569 C 167.427 137.569,169.341 135.936,169.341 135.371 C 169.341 135.176,170.234 134.090,171.326 132.956 C 174.850 129.300,178.489 125.684,179.794 124.543 C 181.408 123.133,181.355 121.684,179.689 121.684 C 179.415 121.684,179.190 121.465,179.190 121.197 C 179.190 120.598,177.141 118.500,176.579 118.524 C 176.355 118.534,175.528 119.254,174.742 120.124 M186.815 132.831 C 185.854 133.873,184.458 135.330,183.713 136.068 C 182.969 136.806,180.305 139.465,177.794 141.976 C 175.284 144.487,172.658 147.113,171.959 147.812 C 171.260 148.511,168.615 151.156,166.081 153.690 C 163.547 156.224,160.902 158.869,160.203 159.568 C 159.504 160.267,156.878 162.892,154.367 165.402 C 151.856 167.911,149.324 170.476,148.742 171.101 L 147.682 172.237 148.424 172.846 C 149.287 173.554,149.348 173.615,150.565 174.980 C 152.173 176.783,152.279 176.723,158.621 170.373 C 160.236 168.756,163.022 165.968,164.813 164.177 C 166.604 162.387,169.249 159.742,170.691 158.299 C 172.133 156.857,174.778 154.212,176.569 152.422 C 178.360 150.631,181.005 147.986,182.446 146.544 C 183.888 145.102,186.510 142.457,188.274 140.666 C 190.037 138.876,191.789 137.200,192.166 136.943 C 193.345 136.140,193.014 135.179,190.792 132.957 C 189.660 131.824,188.695 130.906,188.648 130.917 C 188.601 130.927,187.776 131.788,186.815 132.831 M150.184 309.373 C 147.043 314.139,143.883 320.864,138.054 335.187 C 133.983 345.193,134.785 344.200,130.103 345.022 C 125.450 345.840,125.179 345.920,125.179 346.468 C 125.179 347.246,125.701 347.269,128.836 346.624 C 133.884 345.585,133.812 345.552,132.651 348.372 C 131.851 350.314,131.614 352.025,132.145 352.025 C 132.726 352.025,133.729 350.365,134.410 348.275 C 134.791 347.105,135.269 345.970,135.473 345.752 C 136.036 345.148,145.425 344.020,150.437 343.953 C 152.439 343.927,152.661 343.860,152.661 343.288 C 152.661 342.387,152.100 342.383,143.820 343.215 C 139.832 343.616,136.499 343.832,136.414 343.695 C 136.259 343.444,141.267 331.050,144.409 323.908 C 147.733 316.351,148.696 314.474,149.336 314.307 C 150.087 314.110,153.279 308.374,153.017 307.691 C 152.612 306.633,151.590 307.240,150.184 309.373 M263.277 310.445 C 262.855 310.691,262.749 311.001,262.893 311.574 C 263.044 312.174,262.746 312.903,261.649 314.617 C 260.212 316.863,259.811 318.348,260.642 318.348 C 261.098 318.348,264.365 313.431,264.975 311.828 C 265.477 310.508,264.517 309.725,263.277 310.445 M193.380 318.810 C 191.650 320.122,190.789 322.160,191.966 322.160 C 193.424 322.160,196.004 318.968,194.891 318.541 C 194.200 318.276,194.050 318.303,193.380 318.810 M248.788 321.806 C 248.599 322.160,248.482 323.691,248.526 325.241 C 248.682 330.741,243.171 338.700,241.444 335.471 C 240.421 333.560,242.885 328.855,245.950 326.869 C 247.670 325.755,248.042 324.702,246.715 324.702 C 246.199 324.702,245.252 325.338,243.935 326.568 C 241.153 329.167,234.539 332.462,232.848 332.092 C 232.040 331.915,231.615 330.578,231.581 328.103 C 231.496 322.015,228.743 323.053,222.297 331.603 C 220.195 334.391,220.392 333.321,223.070 327.399 C 225.172 322.752,225.235 322.478,224.206 322.478 C 223.575 322.478,223.279 322.937,222.106 325.735 C 220.592 329.347,219.841 330.286,216.362 332.911 C 210.521 337.321,208.843 336.480,210.918 330.182 C 213.804 321.424,209.623 319.594,202.855 326.654 C 197.933 331.788,188.261 337.471,186.679 336.159 C 185.573 335.241,186.618 331.597,188.866 328.534 C 190.037 326.938,190.170 325.973,189.217 325.973 C 188.955 325.973,188.419 326.408,188.026 326.939 C 185.490 330.370,172.393 336.646,170.441 335.367 C 167.545 333.470,174.101 324.780,177.861 325.532 C 179.001 325.761,179.552 325.045,178.869 324.222 C 177.703 322.817,174.447 324.094,171.016 327.302 C 165.791 332.189,160.582 335.460,159.597 334.475 C 159.145 334.023,159.163 333.664,159.794 330.581 C 161.028 324.558,160.113 324.656,154.137 331.186 C 148.349 337.511,147.723 337.852,148.981 334.001 C 149.795 331.511,151.512 328.305,152.845 326.786 C 153.890 325.597,154.029 324.781,153.239 324.478 C 151.352 323.753,146.019 334.940,146.963 337.641 C 147.736 339.853,149.607 338.661,155.027 332.505 C 158.415 328.657,158.415 328.657,157.908 331.663 C 156.866 337.839,160.277 337.835,167.948 331.652 C 168.206 331.445,168.262 331.957,168.153 333.515 C 167.796 338.634,173.007 338.378,182.076 332.829 C 185.969 330.446,185.638 330.442,184.842 332.866 C 182.769 339.181,187.073 339.625,195.732 333.990 C 197.031 333.145,198.283 332.339,198.514 332.198 C 198.786 332.033,198.718 332.376,198.321 333.168 C 196.959 335.885,197.064 337.411,198.613 337.411 C 199.950 337.411,200.272 337.195,204.798 333.277 C 208.688 329.910,209.641 329.263,209.263 330.248 C 206.489 337.478,210.915 339.585,217.244 334.048 C 219.283 332.264,219.348 332.282,218.554 334.406 C 217.153 338.149,219.319 338.184,221.849 334.459 C 224.243 330.935,227.590 327.051,228.750 326.451 C 229.875 325.869,229.934 326.010,230.099 329.691 C 230.293 334.007,232.386 334.656,237.741 332.058 C 240.676 330.635,240.717 330.635,240.227 332.041 C 237.523 339.800,244.921 338.967,248.667 331.090 C 250.087 328.106,249.907 328.280,250.756 329.075 C 252.761 330.953,260.683 330.753,260.683 328.823 C 260.683 328.241,259.856 328.292,257.983 328.992 C 253.920 330.510,250.956 328.455,250.675 323.924 C 250.505 321.180,249.642 320.212,248.788 321.806 M267.203 322.974 C 263.935 326.092,263.929 327.435,267.179 329.167 C 271.445 331.441,271.501 331.863,267.911 334.773 C 261.143 340.261,258.563 344.309,261.901 344.204 C 264.384 344.126,269.582 339.402,271.968 335.054 C 273.595 332.089,275.473 330.926,281.255 329.301 C 283.424 328.691,283.775 327.879,281.869 327.879 C 280.234 327.879,277.690 328.662,274.875 330.030 L 272.546 331.162 271.857 330.320 C 271.478 329.857,270.167 328.938,268.944 328.276 C 265.935 326.649,265.886 326.162,268.485 323.757 C 270.359 322.023,270.695 321.207,269.537 321.207 C 269.272 321.207,268.222 322.002,267.203 322.974 M209.815 324.252 C 210.524 326.099,207.697 329.422,201.342 334.211 C 199.269 335.772,198.837 335.716,199.656 333.991 C 202.258 328.516,208.979 322.072,209.815 324.252 M269.738 335.821 C 269.738 336.305,265.461 340.701,264.015 341.702 C 260.999 343.793,262.632 341.295,266.529 337.858 C 269.136 335.559,269.738 335.177,269.738 335.821 " stroke="none" fill="#f0e720" fill-rule="evenodd"></path><path id="path1" d="M185.385 0.329 C 73.609 9.113,-8.820 106.015,0.808 217.315 C 10.442 328.694,109.554 410.387,221.073 398.869 C 313.991 389.273,388.575 315.380,398.873 222.716 C 411.262 111.237,332.047 12.939,220.016 0.771 C 214.503 0.172,191.168 -0.126,185.385 0.329 M213.344 7.632 C 325.850 15.784,406.841 116.433,390.766 228.118 C 386.020 261.090,372.536 292.357,351.475 319.222 C 347.932 323.741,346.911 324.778,349.443 321.287 C 357.418 310.289,364.487 297.293,373.851 276.410 C 389.382 241.774,393.866 200.108,386.142 162.192 C 367.208 69.253,282.117 4.139,187.863 10.463 C 72.853 18.179,-8.859 125.226,14.150 238.035 C 19.277 263.167,32.738 294.559,48.394 317.887 C 52.263 323.653,51.518 322.967,46.099 315.777 C -15.607 233.897,-2.091 117.400,76.728 51.781 C 108.413 25.403,146.152 10.444,188.403 7.517 C 192.057 7.264,209.366 7.344,213.344 7.632 M205.242 92.772 C 205.242 92.947,205.492 93.098,205.798 93.107 C 206.104 93.117,206.998 93.837,207.784 94.708 C 209.274 96.357,213.851 100.978,215.242 102.235 L 216.044 102.961 216.846 102.235 C 217.880 101.299,220.100 99.070,223.659 95.393 L 226.505 92.454 228.264 92.454 C 229.232 92.454,230.024 92.597,230.024 92.772 C 230.024 92.947,230.274 93.094,230.580 93.099 C 230.886 93.104,231.493 93.545,231.930 94.078 C 232.367 94.611,234.190 96.501,235.981 98.278 C 237.772 100.055,240.417 102.689,241.859 104.131 C 244.225 106.498,247.341 109.615,253.971 116.245 C 255.216 117.490,257.843 120.117,259.809 122.082 C 261.775 124.047,264.563 126.835,266.004 128.277 C 267.446 129.719,270.091 132.364,271.882 134.155 C 273.673 135.946,276.318 138.591,277.760 140.033 C 279.202 141.475,281.847 144.120,283.638 145.910 C 285.429 147.701,288.074 150.346,289.515 151.788 C 290.957 153.230,293.602 155.875,295.393 157.666 C 297.184 159.456,299.829 162.101,301.271 163.543 C 306.536 168.811,320.149 182.423,325.416 187.689 C 326.858 189.130,329.481 191.775,331.244 193.566 C 333.008 195.357,334.759 197.033,335.136 197.290 C 337.288 198.756,336.517 198.888,325.805 198.888 L 315.788 198.888 314.765 197.935 C 311.985 195.346,308.499 191.906,308.499 191.753 C 308.499 191.658,310.715 191.581,313.423 191.581 C 316.132 191.581,318.348 191.506,318.348 191.414 C 318.348 191.228,316.499 189.249,313.977 186.733 C 313.058 185.817,310.413 183.174,308.099 180.860 C 305.785 178.546,303.159 175.920,302.263 175.023 C 301.366 174.127,298.685 171.445,296.304 169.064 C 291.120 163.880,289.570 162.330,284.272 157.031 C 282.043 154.802,279.380 152.139,278.353 151.113 C 277.327 150.087,274.701 147.460,272.516 145.276 C 267.213 139.972,265.503 138.263,260.443 133.203 C 258.084 130.844,255.438 128.199,254.565 127.326 C 253.691 126.452,251.046 123.807,248.687 121.448 C 246.328 119.089,243.683 116.444,242.809 115.570 C 241.936 114.697,239.309 112.070,236.973 109.733 C 234.636 107.396,231.828 104.554,230.733 103.417 C 228.252 100.842,228.772 100.720,224.621 104.847 L 221.105 108.343 223.981 111.121 C 225.562 112.650,228.177 115.223,229.790 116.839 C 231.404 118.456,234.047 121.101,235.664 122.717 C 237.280 124.333,239.925 126.978,241.541 128.594 C 243.157 130.211,245.802 132.856,247.419 134.472 C 249.035 136.088,251.680 138.733,253.297 140.350 C 254.913 141.966,257.558 144.611,259.174 146.227 C 260.791 147.844,263.579 150.631,265.370 152.422 C 267.161 154.213,269.806 156.858,271.248 158.300 C 274.193 161.245,278.932 165.984,283.320 170.373 C 284.936 171.989,287.581 174.634,289.197 176.251 C 290.814 177.867,293.457 180.512,295.070 182.128 C 296.684 183.745,299.283 186.283,300.848 187.768 C 302.412 189.253,303.782 190.719,303.893 191.025 C 304.003 191.330,304.301 191.581,304.553 191.581 C 304.806 191.581,306.204 192.760,307.659 194.202 C 309.115 195.643,310.614 197.033,310.991 197.290 C 311.936 197.935,311.848 198.253,310.723 198.253 C 310.199 198.253,309.770 198.396,309.770 198.570 C 309.770 198.745,309.198 198.888,308.499 198.888 C 307.800 198.888,307.228 198.745,307.228 198.570 C 307.228 198.366,303.990 198.253,298.150 198.253 C 289.111 198.253,288.165 198.148,288.165 197.148 C 288.165 197.040,287.164 195.964,285.941 194.758 C 282.729 191.589,282.736 191.581,288.642 191.581 C 291.350 191.581,293.566 191.504,293.566 191.410 C 293.566 191.174,292.520 190.040,289.832 187.363 C 288.564 186.100,285.901 183.441,283.914 181.454 C 281.927 179.467,279.282 176.822,278.036 175.576 C 276.791 174.331,274.164 171.704,272.199 169.738 C 270.234 167.772,267.446 164.985,266.004 163.543 C 263.449 160.988,258.422 155.962,253.931 151.470 C 252.707 150.247,250.062 147.602,248.053 145.593 C 246.043 143.583,243.417 140.956,242.216 139.755 C 241.014 138.554,238.351 135.891,236.298 133.837 C 234.244 131.784,231.599 129.139,230.420 127.960 C 229.241 126.781,226.632 124.172,224.623 122.163 C 222.613 120.153,219.930 117.436,218.661 116.125 C 217.391 114.814,216.138 113.741,215.876 113.741 C 215.340 113.741,210.643 109.172,210.643 108.651 C 210.643 108.259,210.112 107.655,206.588 104.042 C 205.144 102.562,203.823 101.350,203.653 101.350 C 203.385 101.350,197.566 107.080,196.408 108.483 C 195.969 109.016,196.517 109.929,197.277 109.929 C 197.464 109.929,197.617 110.214,197.617 110.564 C 197.617 110.921,197.829 111.199,198.101 111.199 C 198.367 111.199,199.189 111.773,199.928 112.474 C 200.667 113.175,202.164 114.597,203.257 115.634 C 204.349 116.670,205.242 117.680,205.242 117.876 C 205.242 118.359,206.050 119.139,206.570 119.157 C 206.801 119.165,207.490 119.744,208.102 120.444 C 208.713 121.143,210.108 122.602,211.201 123.686 C 212.294 124.769,214.976 127.442,217.160 129.627 C 219.344 131.811,221.971 134.438,222.997 135.464 C 224.023 136.490,226.650 139.117,228.834 141.301 C 231.018 143.485,233.681 146.148,234.752 147.219 C 235.823 148.290,238.486 150.953,240.670 153.137 C 242.855 155.322,245.481 157.948,246.508 158.975 C 247.534 160.001,250.142 162.602,252.304 164.756 C 254.466 166.909,256.736 169.244,257.347 169.944 C 257.959 170.645,258.642 171.224,258.865 171.232 C 259.345 171.250,260.287 172.110,265.057 176.885 C 270.121 181.955,273.233 185.190,273.233 185.384 C 273.233 185.532,274.957 187.322,282.332 194.835 C 283.405 195.929,284.604 197.065,284.995 197.360 C 285.680 197.877,285.685 197.918,285.135 198.469 C 284.727 198.877,284.525 198.928,284.431 198.647 C 284.248 198.098,279.711 198.101,279.455 198.650 C 279.306 198.967,279.232 198.967,279.084 198.650 C 278.959 198.382,278.090 198.253,276.410 198.253 C 274.730 198.253,273.861 198.382,273.736 198.650 C 273.588 198.967,273.513 198.967,273.365 198.650 C 273.227 198.353,271.704 198.253,267.355 198.253 C 263.006 198.253,261.483 198.353,261.345 198.650 C 261.197 198.967,261.123 198.967,260.974 198.650 C 260.680 198.018,256.516 198.112,256.269 198.755 C 256.163 199.032,256.076 214.258,256.076 232.592 L 256.076 265.925 264.972 265.925 L 273.868 265.925 273.868 233.042 L 273.868 200.159 277.840 200.159 L 281.811 200.159 281.811 202.065 C 281.811 203.124,281.670 203.971,281.493 203.971 C 281.284 203.971,281.176 214.509,281.176 234.948 L 281.176 265.925 286.259 265.925 C 289.436 265.925,291.342 265.806,291.342 265.608 C 291.342 265.414,292.772 265.290,294.996 265.290 L 298.650 265.290 298.650 260.365 C 298.650 257.294,298.769 255.441,298.967 255.441 C 299.177 255.441,299.285 246.015,299.285 227.800 L 299.285 200.159 302.939 200.159 L 306.593 200.159 306.593 217.792 C 306.593 229.335,306.483 235.425,306.275 235.425 C 306.067 235.425,305.957 241.575,305.957 253.240 C 305.957 272.059,305.964 271.962,304.550 271.962 C 304.276 271.962,304.051 272.105,304.051 272.280 C 304.051 272.487,298.173 272.597,287.053 272.597 C 275.933 272.597,270.056 272.707,270.056 272.915 C 270.056 273.119,266.984 273.233,261.477 273.233 C 255.970 273.233,252.899 273.119,252.899 272.915 C 252.899 272.706,243.897 272.597,226.529 272.597 L 200.159 272.597 200.159 269.897 C 200.159 268.308,200.028 267.196,199.841 267.196 C 199.666 267.196,199.523 266.910,199.523 266.561 C 199.523 266.211,199.666 265.925,199.841 265.925 C 200.051 265.925,200.159 254.541,200.159 232.407 L 200.159 198.888 178.872 198.888 L 157.585 198.888 157.585 232.407 C 157.585 254.541,157.693 265.925,157.903 265.925 C 158.082 265.925,158.221 266.826,158.221 267.990 C 158.221 269.155,158.082 270.056,157.903 270.056 C 157.728 270.056,157.585 270.770,157.585 271.644 L 157.585 273.233 155.361 273.233 C 154.091 273.233,153.137 273.097,153.137 272.915 C 153.137 272.706,144.583 272.597,128.108 272.597 L 103.079 272.597 102.612 271.923 C 102.355 271.552,101.966 271.062,101.747 270.834 C 101.435 270.507,101.350 262.833,101.350 234.653 L 101.350 198.888 91.660 198.888 C 85.412 198.888,81.970 198.775,81.970 198.570 C 81.970 198.371,79.905 198.253,76.410 198.253 C 70.814 198.253,70.279 198.147,71.535 197.290 C 71.912 197.033,73.521 195.500,75.110 193.884 C 76.698 192.267,79.321 189.622,80.938 188.006 C 85.327 183.618,90.066 178.879,93.010 175.934 C 94.452 174.492,97.097 171.847,98.888 170.056 C 100.679 168.265,103.467 165.477,105.083 163.861 C 106.699 162.244,109.344 159.599,110.961 157.983 C 112.577 156.367,115.213 153.722,116.818 152.105 C 120.309 148.589,120.564 148.372,121.194 148.372 C 121.463 148.372,121.684 148.155,121.684 147.889 C 121.684 147.624,122.577 146.485,123.670 145.359 C 124.762 144.232,126.299 142.599,127.085 141.728 C 127.871 140.858,128.765 140.138,129.071 140.129 C 129.376 140.119,129.627 139.890,129.627 139.620 C 129.627 138.985,131.042 137.569,131.677 137.569 C 131.947 137.569,132.168 137.422,132.168 137.241 C 132.168 136.729,134.314 134.710,134.858 134.710 C 135.126 134.710,135.346 134.489,135.346 134.219 C 135.346 133.666,136.727 132.168,137.237 132.168 C 137.420 132.168,137.569 131.947,137.569 131.677 C 137.569 131.042,138.985 129.627,139.620 129.627 C 139.890 129.627,140.111 129.406,140.111 129.136 C 140.111 128.570,141.498 127.085,142.026 127.085 C 142.403 127.085,143.288 126.311,143.288 125.981 C 143.288 125.577,144.867 124.226,145.339 124.226 C 145.609 124.226,145.830 124.005,145.830 123.735 C 145.830 123.099,147.245 121.684,147.881 121.684 C 148.151 121.684,148.372 121.463,148.372 121.193 C 148.372 120.721,149.723 119.142,150.127 119.142 C 150.460 119.142,151.231 118.255,151.231 117.871 C 151.231 117.402,152.033 116.600,152.502 116.600 C 152.980 116.600,153.773 115.795,153.773 115.310 C 153.773 114.758,155.040 113.741,155.728 113.741 C 156.050 113.741,156.315 113.520,156.315 113.250 C 156.315 112.685,157.701 111.199,158.229 111.199 C 158.691 111.199,159.492 110.394,159.492 109.929 C 159.492 109.405,160.316 108.658,160.893 108.658 C 161.165 108.658,161.484 108.268,161.604 107.787 C 161.846 106.822,162.431 106.116,162.986 106.116 C 163.452 106.116,164.257 105.315,164.257 104.853 C 164.257 104.393,165.711 102.939,166.172 102.939 C 166.553 102.939,167.434 102.163,167.434 101.827 C 167.434 101.487,168.317 100.715,168.705 100.715 C 169.174 100.715,169.976 99.913,169.976 99.444 C 169.976 98.979,170.777 98.173,171.239 98.173 C 171.817 98.173,173.035 96.782,173.267 95.856 C 173.386 95.383,173.705 94.996,173.976 94.996 C 174.613 94.996,175.377 94.229,175.377 93.589 C 175.377 93.177,175.820 93.090,177.919 93.090 C 179.402 93.090,180.461 93.222,180.461 93.407 C 180.461 93.582,180.747 93.725,181.096 93.725 C 181.453 93.725,181.732 93.937,181.732 94.209 C 181.732 94.750,185.609 98.908,189.512 102.551 L 190.627 103.592 191.744 102.551 C 193.500 100.911,196.610 97.774,199.206 95.022 L 201.589 92.497 203.415 92.475 C 204.436 92.464,205.242 92.595,205.242 92.772 M175.695 104.873 C 174.384 106.263,171.847 108.862,170.056 110.650 C 166.707 113.992,163.965 116.734,158.304 122.399 C 153.369 127.338,152.243 128.356,151.715 128.356 C 151.443 128.356,151.231 128.634,151.231 128.991 C 151.231 129.407,151.019 129.627,150.617 129.627 C 150.279 129.627,149.912 129.877,149.801 130.183 C 149.690 130.488,148.035 132.240,146.122 134.075 C 144.210 135.909,141.468 138.591,140.028 140.033 C 138.588 141.475,135.945 144.120,134.154 145.910 C 132.363 147.701,129.718 150.346,128.277 151.788 C 126.835 153.230,124.190 155.875,122.399 157.666 C 120.608 159.456,117.963 162.101,116.521 163.543 C 114.058 166.007,109.535 170.531,104.449 175.617 C 103.226 176.840,100.599 179.467,98.612 181.454 C 96.624 183.441,93.961 186.100,92.694 187.363 C 90.006 190.040,88.959 191.174,88.959 191.410 C 88.959 191.504,93.392 191.581,98.809 191.581 L 108.658 191.581 108.658 194.122 C 108.658 195.605,108.525 196.664,108.340 196.664 C 108.130 196.664,108.022 208.419,108.022 231.295 L 108.022 265.925 129.309 265.925 L 150.596 265.925 150.596 230.172 L 150.596 194.419 151.697 193.317 L 152.799 192.216 178.872 192.216 L 204.946 192.216 206.047 193.317 L 207.149 194.419 207.149 230.172 L 207.149 265.925 228.118 265.925 L 249.087 265.925 249.087 230.094 C 249.087 194.627,249.093 194.258,249.722 193.805 C 250.071 193.553,250.357 193.092,250.357 192.781 C 250.357 192.428,250.596 192.216,250.993 192.216 C 251.342 192.216,251.628 192.073,251.628 191.898 C 251.628 191.694,254.699 191.581,260.207 191.581 C 265.643 191.581,268.785 191.466,268.785 191.267 C 268.785 191.094,267.426 189.629,265.766 188.010 C 262.989 185.303,260.785 183.112,253.617 175.934 C 249.521 171.832,248.180 170.613,247.744 170.594 C 247.521 170.585,246.696 169.864,245.909 168.993 C 245.123 168.122,243.014 165.950,241.223 164.166 C 239.432 162.381,236.787 159.742,235.346 158.300 C 231.995 154.948,226.942 149.896,223.591 146.545 C 222.149 145.103,219.504 142.458,217.713 140.667 C 215.923 138.876,213.278 136.233,211.836 134.795 C 210.394 133.356,207.998 130.899,206.513 129.336 C 205.028 127.772,203.628 126.483,203.402 126.471 C 203.176 126.459,202.819 126.307,202.608 126.133 C 201.113 124.900,200.159 123.918,200.159 123.615 C 200.159 123.235,198.579 121.528,193.884 116.837 C 188.884 111.840,184.924 108.022,184.741 108.022 C 184.645 108.022,183.291 106.736,181.732 105.163 C 178.328 101.730,178.644 101.745,175.695 104.873 M177.284 118.363 C 177.284 118.634,178.294 119.852,179.530 121.071 L 181.776 123.286 180.469 124.471 C 179.750 125.122,177.845 126.978,176.237 128.594 C 174.628 130.211,171.990 132.856,170.373 134.472 C 168.756 136.088,166.111 138.733,164.495 140.350 C 162.879 141.966,160.234 144.611,158.618 146.227 C 157.001 147.844,154.356 150.489,152.740 152.105 C 151.124 153.722,148.479 156.367,146.862 157.983 C 145.246 159.599,142.422 162.388,140.587 164.182 C 138.563 166.160,137.252 167.690,137.252 168.074 C 137.252 168.494,137.039 168.705,136.616 168.705 C 136.257 168.705,135.981 168.917,135.981 169.192 C 135.981 169.825,133.923 171.882,133.291 171.882 C 133.016 171.882,132.804 172.159,132.804 172.518 C 132.804 172.867,132.663 173.153,132.492 173.153 C 132.320 173.153,131.251 174.083,130.115 175.218 C 128.979 176.354,127.833 177.284,127.567 177.284 C 127.302 177.284,127.085 177.427,127.085 177.601 C 127.085 177.776,126.799 177.919,126.450 177.919 C 126.100 177.919,125.814 177.779,125.814 177.608 C 125.814 177.437,125.028 176.511,124.067 175.550 C 121.980 173.464,121.943 173.148,123.590 171.565 C 124.289 170.893,124.861 170.183,124.861 169.988 C 124.861 169.487,125.164 169.152,129.627 164.711 C 131.811 162.538,134.419 159.938,135.423 158.934 C 136.427 157.930,139.036 155.322,141.220 153.137 C 146.255 148.103,148.809 145.549,153.375 140.984 C 155.384 138.974,158.029 136.329,159.252 135.106 C 160.476 133.883,163.102 131.256,165.090 129.269 C 167.077 127.281,169.740 124.624,171.008 123.364 C 172.275 122.103,173.956 120.360,174.742 119.489 C 176.162 117.917,177.284 117.420,177.284 118.363 M190.792 132.321 C 191.925 133.454,192.851 134.598,192.851 134.863 C 192.851 135.128,192.994 135.346,193.169 135.346 C 193.754 135.346,193.495 136.471,192.801 136.943 C 192.424 137.200,190.530 139.019,188.591 140.984 C 186.653 142.949,184.049 145.576,182.803 146.821 C 181.558 148.067,178.895 150.730,176.885 152.739 C 174.876 154.749,172.231 157.394,171.008 158.617 C 163.498 166.127,161.283 168.343,158.939 170.690 C 154.681 174.955,153.497 176.013,152.986 176.013 C 152.720 176.013,152.502 176.156,152.502 176.330 C 152.502 176.990,151.359 176.592,150.596 175.666 C 149.245 174.028,148.356 173.153,148.040 173.153 C 147.873 173.153,147.736 172.792,147.736 172.350 C 147.736 171.442,148.056 171.074,154.050 165.085 C 156.386 162.750,159.013 160.125,159.886 159.251 C 160.760 158.377,163.424 155.714,165.805 153.332 C 168.187 150.951,170.850 148.288,171.724 147.414 C 172.597 146.540,175.205 143.932,177.519 141.618 C 179.833 139.304,182.478 136.664,183.397 135.751 C 184.316 134.838,185.854 133.238,186.815 132.196 C 187.776 131.153,188.601 130.292,188.648 130.281 C 188.695 130.271,189.660 131.189,190.792 132.321 M153.137 307.711 C 153.137 308.652,150.417 314.218,149.957 314.218 C 149.784 314.218,149.545 314.204,149.425 314.188 C 148.953 314.123,145.209 322.392,140.102 334.776 C 136.134 344.396,136.286 343.850,137.649 343.617 C 140.116 343.195,152.166 342.189,152.628 342.367 C 153.216 342.592,153.310 343.621,152.773 343.953 C 152.572 344.077,151.036 344.211,149.358 344.251 C 145.972 344.333,137.158 345.281,136.150 345.673 C 135.709 345.844,135.226 346.715,134.626 348.418 C 133.597 351.339,132.795 352.530,132.050 352.244 C 131.316 351.962,131.406 350.736,132.327 348.469 C 132.764 347.394,133.122 346.468,133.122 346.411 C 133.122 346.157,131.149 346.379,128.516 346.929 C 125.611 347.536,124.861 347.431,124.861 346.419 C 124.861 345.796,125.799 345.500,130.088 344.774 C 134.642 344.002,133.755 345.071,137.517 335.822 C 145.267 316.767,150.323 306.910,152.346 306.910 C 152.980 306.910,153.137 307.070,153.137 307.711 M265.224 311.199 C 265.349 312.479,261.586 318.507,260.662 318.507 C 259.513 318.507,259.758 317.076,261.329 314.621 C 262.380 312.977,262.737 312.141,262.587 311.669 C 262.286 310.720,262.989 310.037,264.151 310.151 C 264.982 310.232,265.145 310.391,265.224 311.199 M195.609 318.857 C 195.971 319.802,193.142 322.478,191.781 322.478 C 190.428 322.478,191.971 318.971,193.588 318.373 C 194.419 318.065,195.394 318.299,195.609 318.857 M250.378 321.218 C 250.905 321.500,250.993 321.900,250.993 324.007 C 250.993 328.385,254.394 330.404,258.573 328.508 C 260.476 327.644,260.907 327.689,260.784 328.734 C 260.546 330.751,254.622 331.444,251.528 329.817 L 249.775 328.894 249.566 329.737 C 249.070 331.729,246.356 335.667,244.573 336.982 C 241.275 339.416,238.214 335.805,240.020 331.610 C 240.205 331.182,239.641 331.350,237.587 332.335 C 231.864 335.081,230.027 334.314,229.767 329.071 C 229.691 327.542,229.561 326.291,229.478 326.291 C 228.605 326.291,223.858 331.718,221.500 335.411 C 219.594 338.397,217.009 337.988,218.108 334.875 C 218.628 333.400,218.464 333.294,217.333 334.371 C 212.034 339.417,207.257 338.178,208.532 332.088 C 208.909 330.284,208.901 330.141,208.445 330.528 C 208.169 330.762,206.252 332.402,204.186 334.172 C 198.552 339.000,195.637 338.827,197.742 333.789 L 198.185 332.729 195.165 334.627 C 186.852 339.852,182.893 339.401,184.453 333.408 C 184.704 332.447,184.909 331.613,184.909 331.554 C 184.909 331.496,183.381 332.357,181.513 333.468 C 172.648 338.741,167.235 338.725,167.832 333.426 C 168.009 331.854,168.090 331.847,165.687 333.615 C 159.608 338.089,157.366 337.798,157.664 332.573 L 157.827 329.725 156.376 331.423 C 149.586 339.373,146.572 340.857,146.658 336.206 C 146.725 332.589,151.362 323.796,153.029 324.124 C 154.214 324.357,154.274 325.244,153.199 326.672 C 151.107 329.454,149.497 332.649,148.813 335.374 C 148.446 336.835,149.224 336.176,153.925 331.038 C 159.732 324.692,161.507 324.197,160.344 329.248 C 159.439 333.180,159.350 334.199,159.896 334.409 C 161.030 334.844,166.713 331.027,171.253 326.781 C 174.014 324.199,176.130 323.204,178.079 323.569 C 180.216 323.970,179.795 326.122,177.644 325.791 C 174.262 325.272,168.143 333.270,170.454 335.188 C 171.964 336.441,185.287 330.115,187.560 327.067 C 188.402 325.937,189.289 325.521,189.854 325.990 C 190.542 326.561,190.409 327.206,189.356 328.405 C 187.822 330.152,186.738 332.588,186.695 334.383 L 186.656 335.981 187.696 335.933 C 190.130 335.822,198.469 330.846,201.327 327.800 C 207.412 321.316,211.597 319.875,211.597 324.264 C 211.597 325.052,211.742 325.969,211.920 326.302 C 212.165 326.760,212.010 327.617,211.285 329.818 C 209.534 335.132,210.037 336.317,213.319 334.609 C 217.474 332.446,220.133 329.680,221.803 325.783 C 223.102 322.749,223.389 322.307,224.115 322.219 C 225.486 322.052,225.394 322.839,223.577 326.812 C 221.335 331.716,221.080 332.561,222.295 331.059 C 229.325 322.372,231.465 321.700,231.845 328.061 C 232.084 332.072,232.395 332.383,235.181 331.387 C 238.339 330.259,241.788 328.255,243.724 326.424 C 245.461 324.781,246.795 324.109,247.480 324.532 C 248.053 324.886,247.850 325.932,247.134 326.315 C 243.120 328.464,239.563 335.822,242.539 335.822 C 244.974 335.822,248.334 329.470,248.207 325.105 C 248.104 321.540,248.765 320.355,250.378 321.218 M270.308 321.702 C 270.371 322.142,269.776 322.974,268.450 324.300 C 266.234 326.515,266.242 326.596,268.794 327.884 C 269.822 328.403,271.152 329.257,271.750 329.781 L 272.836 330.735 275.496 329.507 C 279.957 327.449,283.400 326.915,283.400 328.283 C 283.400 328.917,283.076 329.093,280.715 329.744 C 275.598 331.156,273.589 332.427,272.158 335.159 C 269.718 339.817,264.239 344.562,261.558 344.340 C 258.059 344.051,261.272 339.501,269.526 333.056 C 270.774 332.081,270.447 331.385,268.128 330.074 C 264.988 328.301,264.654 327.975,264.654 326.682 C 264.654 323.956,269.960 319.283,270.308 321.702 M207.149 325.128 C 204.463 327.111,199.523 333.485,199.523 334.969 C 199.523 335.427,202.033 333.440,205.972 329.865 C 209.529 326.636,209.715 326.406,209.626 325.347 C 209.501 323.874,208.918 323.822,207.149 325.128 M265.848 339.019 C 262.354 342.446,262.461 342.885,266.000 339.642 C 267.979 337.828,269.704 335.822,269.285 335.822 C 269.187 335.822,267.641 337.260,265.848 339.019 " stroke="none" fill="#2c2c2c" fill-rule="evenodd"></path><path id="path2" d="M198.173 10.084 C 199.265 10.146,201.052 10.146,202.145 10.084 C 203.237 10.022,202.343 9.972,200.159 9.972 C 197.975 9.972,197.081 10.022,198.173 10.084 M336.134 63.622 C 337.966 65.500,339.503 67.037,339.550 67.037 C 339.779 67.037,339.392 66.630,336.219 63.537 L 332.804 60.207 336.134 63.622 M334.234 65.608 C 335.711 67.093,336.992 68.308,337.079 68.308 C 337.166 68.308,336.029 67.093,334.551 65.608 C 333.074 64.122,331.793 62.907,331.706 62.907 C 331.618 62.907,332.756 64.122,334.234 65.608 M221.149 108.896 C 221.161 109.027,222.307 110.207,223.697 111.517 C 225.087 112.828,227.687 115.365,229.474 117.156 C 231.262 118.947,233.904 121.592,235.346 123.034 C 236.788 124.476,239.433 127.121,241.224 128.912 C 243.015 130.703,245.660 133.348,247.102 134.789 C 248.544 136.231,251.189 138.876,252.979 140.667 C 254.770 142.458,257.415 145.103,258.857 146.545 C 264.113 151.799,277.748 165.434,283.002 170.690 C 284.444 172.132,287.089 174.777,288.880 176.568 C 290.671 178.359,293.318 181.039,294.762 182.525 C 296.206 184.011,297.530 185.226,297.705 185.226 C 298.015 185.226,295.112 182.164,289.197 176.251 C 287.581 174.634,284.936 171.989,283.320 170.373 C 278.932 165.984,274.193 161.245,271.248 158.300 C 269.806 156.858,267.161 154.213,265.370 152.422 C 263.579 150.631,260.791 147.844,259.174 146.227 C 257.558 144.611,254.913 141.966,253.297 140.350 C 251.680 138.733,249.035 136.088,247.419 134.472 C 245.802 132.856,243.157 130.211,241.541 128.594 C 239.925 126.978,237.280 124.333,235.664 122.717 C 234.047 121.101,231.402 118.456,229.786 116.839 C 222.715 109.765,221.094 108.275,221.149 108.896 M216.362 129.155 C 216.362 129.395,222.842 136.051,225.435 138.474 C 226.061 139.059,226.656 139.455,226.757 139.354 C 226.858 139.253,226.481 138.775,225.921 138.291 C 224.654 137.197,221.625 134.154,218.904 131.242 C 217.033 129.239,216.362 128.689,216.362 129.155 M218.268 140.913 C 218.268 141.474,230.278 153.307,230.561 153.024 C 230.655 152.930,229.854 152.023,228.781 151.009 C 225.822 148.214,221.106 143.478,219.857 142.049 C 218.844 140.889,218.268 140.478,218.268 140.913 M140.747 153.481 C 137.403 156.964,136.765 157.609,129.545 164.792 C 124.992 169.323,124.721 169.630,125.031 169.918 C 125.160 170.037,125.335 169.940,125.419 169.703 C 125.504 169.465,127.503 167.373,129.862 165.055 C 137.508 157.541,144.559 150.377,144.559 150.123 C 144.559 149.637,143.767 150.335,140.747 153.481 M298.650 161.262 C 298.650 161.599,299.632 162.428,299.815 162.245 C 299.915 162.145,299.775 161.842,299.505 161.572 C 299.000 161.067,298.650 160.940,298.650 161.262 M301.191 163.803 C 301.191 164.141,302.173 164.970,302.356 164.787 C 302.456 164.687,302.317 164.384,302.046 164.114 C 301.542 163.609,301.191 163.482,301.191 163.803 M303.733 166.418 C 303.733 166.860,304.985 168.195,305.199 167.981 C 305.303 167.876,305.016 167.418,304.561 166.963 C 304.106 166.507,303.733 166.262,303.733 166.418 M271.347 168.944 C 271.358 169.075,272.362 170.111,273.578 171.247 C 274.794 172.383,276.822 174.349,278.085 175.617 C 282.147 179.694,287.464 185.005,289.832 187.351 C 291.100 188.607,292.533 190.093,293.017 190.654 C 293.501 191.215,293.979 191.591,294.080 191.491 C 294.277 191.294,293.303 190.193,290.149 187.049 C 288.190 185.095,282.270 179.178,278.396 175.300 C 272.813 169.712,271.296 168.343,271.347 168.944 M305.957 168.879 C 305.957 169.208,307.585 170.679,307.757 170.506 C 307.853 170.410,307.565 169.966,307.117 169.519 C 306.326 168.728,305.957 168.524,305.957 168.879 M308.508 171.485 C 308.514 171.616,308.954 172.081,309.487 172.518 C 310.020 172.955,311.624 174.492,313.052 175.934 C 322.695 185.674,325.002 187.892,325.243 187.651 C 325.341 187.553,324.823 186.932,324.094 186.270 C 323.364 185.609,321.165 183.460,319.207 181.494 C 311.838 174.098,311.022 173.287,309.942 172.280 C 308.822 171.235,308.491 171.052,308.508 171.485 M124.861 176.194 C 124.861 176.294,125.075 176.590,125.338 176.852 C 125.855 177.370,125.920 177.293,125.621 176.515 C 125.440 176.043,124.861 175.798,124.861 176.194 M90.423 178.422 C 90.125 179.199,90.190 179.276,90.707 178.759 C 91.247 178.219,91.316 177.919,90.900 177.919 C 90.744 177.919,90.529 178.145,90.423 178.422 M97.301 182.154 C 88.997 190.392,88.194 191.238,88.446 191.491 C 88.547 191.591,89.025 191.215,89.509 190.654 C 90.475 189.535,93.249 186.757,97.776 182.376 C 99.392 180.812,100.715 179.455,100.715 179.361 C 100.715 178.892,99.994 179.482,97.301 182.154 M82.335 186.371 C 81.756 187.026,82.129 187.337,82.749 186.717 C 83.019 186.446,83.241 186.143,83.241 186.043 C 83.241 185.710,82.769 185.881,82.335 186.371 M298.650 186.043 C 298.650 186.381,299.632 187.210,299.815 187.027 C 299.915 186.927,299.775 186.624,299.505 186.353 C 299.000 185.849,298.650 185.722,298.650 186.043 M80.111 188.603 C 79.700 189.041,79.441 189.476,79.536 189.570 C 79.707 189.742,81.334 188.268,81.334 187.941 C 81.334 187.567,80.823 187.844,80.111 188.603 M10.247 193.646 C 10.250 194.345,10.316 194.593,10.392 194.198 C 10.467 193.803,10.465 193.231,10.385 192.927 C 10.306 192.623,10.243 192.947,10.247 193.646 M73.500 195.539 C 72.773 196.293,71.986 196.978,71.752 197.061 C 71.518 197.144,71.427 197.321,71.550 197.453 C 71.672 197.585,72.004 197.461,72.287 197.178 C 72.570 196.895,73.077 196.664,73.414 196.664 C 73.790 196.664,74.027 196.445,74.027 196.099 C 74.027 195.788,74.313 195.327,74.662 195.075 C 75.294 194.620,75.515 194.101,75.060 194.145 C 74.929 194.158,74.226 194.785,73.500 195.539 M7.437 199.841 C 7.437 202.724,7.485 203.904,7.544 202.462 C 7.603 201.021,7.603 198.662,7.544 197.220 C 7.485 195.778,7.437 196.958,7.437 199.841 M389.956 199.841 C 389.956 202.025,390.006 202.919,390.068 201.827 C 390.130 200.735,390.130 198.948,390.068 197.855 C 390.006 196.763,389.956 197.657,389.956 199.841 M99.444 198.570 C 99.444 198.745,99.873 198.888,100.397 198.888 C 100.921 198.888,101.350 198.745,101.350 198.570 C 101.350 198.396,100.921 198.253,100.397 198.253 C 99.873 198.253,99.444 198.396,99.444 198.570 M315.806 198.570 C 315.806 198.770,317.818 198.888,321.207 198.888 C 324.596 198.888,326.608 198.770,326.608 198.570 C 326.608 198.371,324.596 198.253,321.207 198.253 C 317.818 198.253,315.806 198.371,315.806 198.570 M327.244 198.570 C 327.244 198.745,327.601 198.888,328.038 198.888 C 328.475 198.888,328.832 198.745,328.832 198.570 C 328.832 198.396,328.475 198.253,328.038 198.253 C 327.601 198.253,327.244 198.396,327.244 198.570 M329.468 198.570 C 329.468 198.745,329.754 198.888,330.103 198.888 C 330.453 198.888,330.739 198.745,330.739 198.570 C 330.739 198.396,330.453 198.253,330.103 198.253 C 329.754 198.253,329.468 198.396,329.468 198.570 M10.253 206.195 C 10.253 206.982,10.315 207.303,10.391 206.910 C 10.467 206.517,10.467 205.874,10.391 205.481 C 10.315 205.087,10.253 205.409,10.253 206.195 M231.708 328.197 C 231.708 329.158,231.767 329.551,231.840 329.071 C 231.913 328.590,231.913 327.804,231.840 327.323 C 231.767 326.843,231.708 327.236,231.708 328.197 M151.532 336.378 L 150.437 337.569 151.628 336.475 C 152.737 335.456,152.966 335.187,152.723 335.187 C 152.670 335.187,152.134 335.723,151.532 336.378 M266.861 338.920 L 265.766 340.111 266.958 339.016 C 268.067 337.997,268.295 337.728,268.053 337.728 C 268.000 337.728,267.464 338.264,266.861 338.920 " stroke="none" fill="#75765e" fill-rule="evenodd"></path><path id="path3" d="M191.660 7.526 C 191.966 7.606,192.466 7.606,192.772 7.526 C 193.078 7.446,192.828 7.381,192.216 7.381 C 191.604 7.381,191.354 7.446,191.660 7.526 M207.546 7.526 C 207.851 7.606,208.352 7.606,208.658 7.526 C 208.963 7.446,208.713 7.381,208.102 7.381 C 207.490 7.381,207.240 7.446,207.546 7.526 M194.206 10.077 C 194.689 10.150,195.404 10.148,195.795 10.073 C 196.185 9.997,195.790 9.938,194.917 9.940 C 194.043 9.942,193.723 10.004,194.206 10.077 M204.691 10.077 C 205.174 10.150,205.888 10.148,206.279 10.073 C 206.670 9.997,206.275 9.938,205.401 9.940 C 204.527 9.942,204.208 10.004,204.691 10.077 M175.742 93.599 C 175.506 93.866,175.419 94.183,175.548 94.302 C 175.677 94.422,175.846 94.341,175.924 94.122 C 176.002 93.904,176.340 93.725,176.675 93.725 C 177.010 93.725,177.284 93.582,177.284 93.407 C 177.284 92.921,176.226 93.053,175.742 93.599 M223.352 95.657 C 219.785 99.438,217.784 101.446,216.973 102.060 C 216.573 102.363,216.334 102.699,216.442 102.807 C 216.550 102.915,217.008 102.667,217.460 102.256 C 219.279 100.604,226.211 93.472,226.211 93.253 C 226.211 92.780,225.510 93.370,223.352 95.657 M204.440 101.865 C 204.723 102.148,205.051 102.283,205.169 102.165 C 205.286 102.047,205.172 101.818,204.915 101.656 C 204.165 101.181,203.881 101.306,204.440 101.865 M207.149 104.379 C 207.149 104.472,207.613 105.030,208.181 105.618 C 208.749 106.206,209.462 107.014,209.764 107.413 C 210.067 107.812,210.404 108.050,210.513 107.941 C 210.622 107.832,210.374 107.386,209.962 106.949 C 209.551 106.513,208.856 105.722,208.419 105.192 C 207.690 104.307,207.149 103.961,207.149 104.379 M218.661 116.125 C 219.930 117.436,222.595 120.135,224.582 122.122 C 226.570 124.110,229.197 126.737,230.420 127.960 C 231.643 129.183,234.288 131.828,236.298 133.837 C 238.307 135.847,240.952 138.492,242.175 139.715 C 243.398 140.938,246.043 143.583,248.053 145.593 C 250.062 147.602,252.707 150.247,253.931 151.470 C 255.154 152.694,257.783 155.356,259.773 157.387 C 261.762 159.418,263.533 161.080,263.708 161.080 C 263.988 161.080,260.218 157.124,254.288 151.194 C 253.218 150.123,250.554 147.460,248.370 145.276 C 246.186 143.091,243.541 140.446,242.492 139.398 C 241.444 138.350,238.799 135.705,236.615 133.520 C 234.430 131.336,231.786 128.691,230.737 127.643 C 229.689 126.594,227.062 123.968,224.900 121.806 C 222.738 119.644,220.073 116.945,218.978 115.808 C 217.883 114.671,216.844 113.741,216.670 113.741 C 216.495 113.741,217.391 114.814,218.661 116.125 M169.135 125.227 C 168.935 125.411,167.129 127.209,165.123 129.222 C 160.130 134.233,157.644 136.718,153.415 140.924 C 149.154 145.160,148.870 145.486,149.177 145.771 C 149.306 145.891,149.481 145.794,149.565 145.557 C 149.650 145.319,151.506 143.371,153.691 141.227 C 158.664 136.347,160.484 134.528,165.411 129.507 C 167.576 127.301,169.489 125.496,169.662 125.496 C 169.835 125.496,169.976 125.353,169.976 125.179 C 169.976 124.775,169.605 124.796,169.135 125.227 M209.373 132.341 C 209.373 132.495,210.920 134.022,216.306 139.185 C 217.236 140.076,218.076 140.728,218.171 140.632 C 218.267 140.536,217.608 139.772,216.708 138.934 C 215.807 138.096,213.862 136.231,212.385 134.790 C 209.853 132.318,209.373 131.928,209.373 132.341 M226.847 139.639 C 226.847 139.728,228.169 141.153,229.786 142.805 C 231.402 144.457,233.410 146.546,234.248 147.446 C 235.086 148.347,235.850 149.006,235.946 148.910 C 236.118 148.738,235.533 148.095,230.034 142.415 C 227.396 139.690,226.847 139.211,226.847 139.639 M146.195 148.246 C 145.616 148.901,145.989 149.211,146.609 148.591 C 146.880 148.321,147.101 148.018,147.101 147.918 C 147.101 147.584,146.629 147.755,146.195 148.246 M264.654 161.885 C 264.654 162.210,266.922 164.320,267.090 164.151 C 267.183 164.058,266.750 163.472,266.127 162.849 C 265.045 161.768,264.654 161.512,264.654 161.885 M114.367 164.943 C 113.934 165.579,108.933 170.602,104.053 175.303 C 102.916 176.398,101.986 177.437,101.986 177.611 C 101.986 177.943,104.303 175.758,110.327 169.747 C 115.284 164.800,115.755 164.257,115.082 164.257 C 114.946 164.257,114.624 164.566,114.367 164.943 M268.785 166.345 C 268.785 166.683,269.767 167.512,269.950 167.329 C 270.050 167.229,269.910 166.926,269.640 166.655 C 269.135 166.151,268.785 166.024,268.785 166.345 M156.156 172.852 C 155.981 173.019,155.354 173.588,154.762 174.117 C 154.170 174.646,153.767 175.160,153.867 175.260 C 153.967 175.359,154.563 174.926,155.192 174.297 C 155.821 173.668,156.474 173.153,156.643 173.153 C 156.812 173.153,156.950 173.010,156.950 172.836 C 156.950 172.442,156.578 172.450,156.156 172.852 M302.462 174.923 C 302.462 175.261,303.444 176.090,303.627 175.907 C 303.727 175.807,303.588 175.504,303.317 175.234 C 302.813 174.729,302.462 174.602,302.462 174.923 M304.051 176.816 C 304.051 176.908,305.945 178.838,308.261 181.104 C 314.150 186.871,315.432 188.154,317.171 190.021 C 318.009 190.921,318.773 191.579,318.869 191.484 C 319.106 191.246,317.083 189.141,308.657 180.858 C 304.645 176.914,304.051 176.393,304.051 176.816 M325.338 187.941 C 325.338 188.270,326.965 189.741,327.138 189.568 C 327.233 189.473,326.945 189.029,326.498 188.582 C 325.707 187.791,325.338 187.587,325.338 187.941 M10.241 191.581 C 10.241 192.192,10.306 192.442,10.386 192.137 C 10.466 191.831,10.466 191.330,10.386 191.025 C 10.306 190.719,10.241 190.969,10.241 191.581 M78.157 191.257 C 78.157 191.429,77.215 192.511,76.063 193.663 C 74.911 194.815,74.045 195.835,74.139 195.929 C 74.233 196.023,75.140 195.232,76.154 194.172 C 78.918 191.282,79.160 190.945,78.475 190.945 C 78.300 190.945,78.157 191.086,78.157 191.257 M392.449 191.898 C 392.449 192.510,392.514 192.760,392.594 192.454 C 392.674 192.149,392.674 191.648,392.594 191.342 C 392.514 191.037,392.449 191.287,392.449 191.898 M389.924 194.599 C 389.926 195.473,389.988 195.792,390.061 195.309 C 390.134 194.826,390.132 194.112,390.057 193.721 C 389.981 193.330,389.922 193.725,389.924 194.599 M332.010 194.939 C 332.010 195.277,332.991 196.106,333.174 195.923 C 333.274 195.823,333.135 195.520,332.864 195.249 C 332.360 194.745,332.010 194.618,332.010 194.939 M72.118 197.301 C 71.714 197.652,71.469 198.025,71.574 198.129 C 71.679 198.234,72.137 197.947,72.592 197.492 C 73.563 196.521,73.191 196.371,72.118 197.301 M330.739 198.570 C 330.739 198.745,331.454 198.888,332.327 198.888 C 333.201 198.888,333.916 198.745,333.916 198.570 C 333.916 198.396,333.201 198.253,332.327 198.253 C 331.454 198.253,330.739 198.396,330.739 198.570 M389.924 205.083 C 389.926 205.957,389.988 206.277,390.061 205.794 C 390.134 205.311,390.132 204.596,390.057 204.205 C 389.981 203.815,389.922 204.210,389.924 205.083 M392.449 207.784 C 392.449 208.396,392.514 208.646,392.594 208.340 C 392.674 208.034,392.674 207.534,392.594 207.228 C 392.514 206.922,392.449 207.172,392.449 207.784 M248.207 323.431 C 248.207 324.043,248.273 324.293,248.352 323.987 C 248.432 323.681,248.432 323.181,248.352 322.875 C 248.273 322.569,248.207 322.820,248.207 323.431 " stroke="none" fill="#949464" fill-rule="evenodd"></path><path id="path4" d="M193.888 7.535 C 194.371 7.608,195.086 7.606,195.477 7.531 C 195.868 7.456,195.473 7.396,194.599 7.398 C 193.725 7.401,193.405 7.462,193.888 7.535 M204.686 7.535 C 205.167 7.608,205.953 7.608,206.434 7.535 C 206.914 7.462,206.521 7.403,205.560 7.403 C 204.599 7.403,204.206 7.462,204.686 7.535 M191.978 10.068 C 192.284 10.148,192.784 10.148,193.090 10.068 C 193.396 9.988,193.145 9.923,192.534 9.923 C 191.922 9.923,191.672 9.988,191.978 10.068 M207.228 10.068 C 207.534 10.148,208.034 10.148,208.340 10.068 C 208.646 9.988,208.396 9.923,207.784 9.923 C 207.172 9.923,206.922 9.988,207.228 10.068 M71.306 60.127 L 70.373 61.160 71.406 60.227 C 72.368 59.357,72.584 59.095,72.339 59.095 C 72.284 59.095,71.820 59.559,71.306 60.127 M63.855 63.781 L 60.207 67.514 63.940 63.865 C 67.407 60.476,67.817 60.048,67.588 60.048 C 67.542 60.048,65.862 61.728,63.855 63.781 M330.262 61.636 C 330.945 62.335,331.575 62.907,331.662 62.907 C 331.749 62.907,331.262 62.335,330.580 61.636 C 329.897 60.937,329.267 60.365,329.180 60.365 C 329.093 60.365,329.580 60.937,330.262 61.636 M338.205 69.579 C 338.887 70.278,339.517 70.850,339.605 70.850 C 339.692 70.850,339.205 70.278,338.523 69.579 C 337.840 68.880,337.210 68.308,337.123 68.308 C 337.035 68.308,337.522 68.880,338.205 69.579 M60.187 71.247 L 59.253 72.280 60.286 71.346 C 61.248 70.477,61.465 70.214,61.219 70.214 C 61.164 70.214,60.700 70.679,60.187 71.247 M198.888 95.341 C 196.167 98.253,193.138 101.296,191.871 102.389 C 191.310 102.873,190.934 103.352,191.035 103.453 C 191.136 103.554,191.731 103.158,192.357 102.573 C 194.949 100.149,201.430 93.494,201.430 93.254 C 201.430 92.787,200.759 93.338,198.888 95.341 M174.186 95.163 C 173.793 95.583,173.471 96.146,173.471 96.414 C 173.471 96.683,173.318 96.902,173.131 96.902 C 172.624 96.902,171.882 97.739,171.882 98.309 C 171.882 98.597,171.613 98.809,171.247 98.809 C 170.823 98.809,170.612 99.020,170.612 99.444 C 170.612 99.868,170.400 100.079,169.976 100.079 C 169.553 100.079,169.341 100.291,169.341 100.715 C 169.341 101.138,169.129 101.350,168.705 101.350 C 168.352 101.350,168.070 101.562,168.070 101.827 C 168.070 102.089,167.852 102.303,167.586 102.303 C 166.957 102.303,163.622 105.639,163.622 106.268 C 163.622 106.534,163.388 106.751,163.103 106.751 C 162.438 106.751,161.398 107.944,161.398 108.706 C 161.398 109.081,161.169 109.293,160.763 109.293 C 160.339 109.293,160.127 109.505,160.127 109.929 C 160.127 110.286,159.915 110.564,159.644 110.564 C 159.378 110.564,158.384 111.315,157.435 112.232 C 156.486 113.149,155.137 114.400,154.438 115.012 C 153.739 115.624,153.160 116.374,153.152 116.680 C 153.143 117.019,152.890 117.236,152.502 117.236 C 152.078 117.236,151.867 117.448,151.867 117.871 C 151.867 118.295,151.655 118.507,151.231 118.507 C 150.808 118.507,150.596 118.719,150.596 119.142 C 150.596 119.492,150.451 119.778,150.274 119.778 C 149.953 119.778,146.839 122.738,140.667 128.912 C 138.876 130.703,136.231 133.348,134.789 134.789 C 131.437 138.140,126.385 143.193,123.034 146.544 C 121.592 147.986,118.947 150.631,117.156 152.422 C 115.365 154.212,112.720 156.857,111.279 158.299 C 109.837 159.742,107.192 162.387,105.401 164.177 C 103.610 165.968,100.822 168.756,99.206 170.373 C 97.590 171.989,94.945 174.634,93.328 176.251 C 91.712 177.867,89.069 180.512,87.456 182.128 C 85.843 183.745,83.361 186.184,81.942 187.549 C 80.522 188.914,79.436 190.106,79.529 190.199 C 79.693 190.362,82.426 187.790,87.768 182.446 C 89.210 181.004,91.855 178.359,93.646 176.568 C 95.437 174.777,98.082 172.132,99.523 170.690 C 101.987 168.226,106.510 163.703,111.595 158.617 C 112.819 157.394,115.464 154.749,117.473 152.739 C 119.483 150.730,122.128 148.085,123.351 146.862 C 124.574 145.638,127.197 143.011,129.180 141.024 C 133.786 136.408,134.267 135.981,134.858 135.981 C 135.126 135.981,135.346 135.760,135.346 135.490 C 135.346 135.031,136.693 133.439,137.082 133.439 C 137.245 133.439,142.449 128.399,147.537 123.310 C 153.961 116.887,160.088 110.760,165.407 105.440 C 167.568 103.278,170.231 100.618,171.325 99.528 C 174.564 96.299,175.377 95.359,175.377 94.846 C 175.377 94.174,175.024 94.267,174.186 95.163 M181.732 95.162 C 181.732 95.411,186.384 100.221,188.899 102.573 C 189.524 103.158,190.119 103.554,190.220 103.453 C 190.321 103.352,189.945 102.873,189.384 102.389 C 188.078 101.261,185.466 98.635,183.638 96.613 C 182.339 95.175,181.732 94.713,181.732 95.162 M199.766 104.348 C 196.161 108.020,195.904 108.326,196.199 108.599 C 196.328 108.719,196.502 108.622,196.587 108.385 C 196.671 108.148,198.226 106.468,200.042 104.652 C 201.858 102.836,203.201 101.350,203.026 101.350 C 202.852 101.350,201.384 102.699,199.766 104.348 M224.284 104.548 C 222.513 106.307,221.138 107.821,221.230 107.913 C 221.321 108.004,222.910 106.565,224.761 104.715 C 226.611 102.864,227.985 101.350,227.815 101.350 C 227.644 101.350,226.055 102.789,224.284 104.548 M230.733 103.417 C 231.828 104.554,234.618 107.378,236.932 109.692 C 239.246 112.006,241.854 114.615,242.728 115.488 C 243.601 116.362,246.265 119.026,248.646 121.407 C 251.028 123.789,253.691 126.452,254.565 127.326 C 255.438 128.199,258.084 130.844,260.443 133.203 C 265.477 138.236,267.252 140.012,272.597 145.357 C 274.782 147.541,277.427 150.186,278.475 151.234 C 279.523 152.283,282.132 154.891,284.271 157.031 C 286.411 159.171,289.056 161.812,290.149 162.901 C 291.242 163.990,293.110 165.900,294.299 167.146 C 295.489 168.391,296.538 169.334,296.631 169.241 C 296.789 169.084,294.534 166.651,290.466 162.590 C 289.547 161.672,286.884 159.010,284.547 156.673 C 282.211 154.337,279.585 151.710,278.711 150.836 C 277.837 149.963,275.192 147.318,272.833 144.959 C 266.852 138.978,265.970 138.095,260.760 132.886 C 258.226 130.353,255.580 127.708,254.882 127.009 C 254.183 126.310,251.538 123.665,249.004 121.131 C 246.470 118.597,243.825 115.952,243.126 115.254 C 242.427 114.555,239.801 111.928,237.290 109.417 C 234.779 106.905,231.971 104.063,231.050 103.100 C 230.129 102.138,229.233 101.350,229.059 101.350 C 228.885 101.350,229.638 102.280,230.733 103.417 M196.029 109.475 C 196.029 109.574,196.230 109.858,196.477 110.104 C 196.723 110.351,196.990 110.734,197.069 110.955 C 197.148 111.177,197.321 111.258,197.453 111.135 C 197.585 111.012,197.461 110.680,197.178 110.398 C 196.895 110.115,196.664 109.750,196.664 109.588 C 196.664 109.426,196.521 109.293,196.346 109.293 C 196.172 109.293,196.029 109.375,196.029 109.475 M188.403 111.381 C 188.403 111.718,189.385 112.547,189.568 112.364 C 189.668 112.264,189.529 111.961,189.258 111.691 C 188.754 111.187,188.403 111.059,188.403 111.381 M190.310 113.423 C 190.310 113.598,190.451 113.741,190.623 113.741 C 190.948 113.741,196.403 119.150,197.374 120.436 C 197.677 120.837,198.013 121.077,198.120 120.969 C 198.349 120.740,197.758 120.064,194.222 116.513 C 190.753 113.027,190.310 112.677,190.310 113.423 M174.742 119.480 C 173.956 120.346,173.116 121.274,172.877 121.543 C 172.638 121.812,172.550 122.132,172.682 122.255 C 172.814 122.378,172.991 122.286,173.074 122.052 C 173.158 121.817,173.996 120.855,174.937 119.914 C 175.878 118.973,176.648 118.128,176.648 118.037 C 176.648 117.590,176.042 118.049,174.742 119.480 M179.943 124.287 C 173.428 130.674,169.249 135.041,169.454 135.247 C 169.548 135.341,170.455 134.540,171.469 133.467 C 174.264 130.508,179.000 125.792,180.429 124.543 C 181.638 123.487,182.019 122.927,181.493 122.978 C 181.362 122.991,180.665 123.580,179.943 124.287 M203.336 125.977 C 203.336 126.067,204.694 127.498,206.354 129.158 C 208.014 130.818,209.373 132.037,209.373 131.867 C 209.373 131.549,203.815 125.814,203.507 125.814 C 203.413 125.814,203.336 125.887,203.336 125.977 M150.913 128.388 C 150.302 129.088,148.032 131.423,145.870 133.576 C 143.708 135.729,140.938 138.492,139.715 139.715 C 138.492 140.938,135.847 143.583,133.837 145.593 C 131.828 147.602,129.183 150.247,127.960 151.470 C 126.737 152.694,124.119 155.321,122.142 157.308 C 120.166 159.295,118.089 161.317,117.528 161.801 C 116.966 162.285,116.590 162.764,116.691 162.865 C 116.904 163.078,117.944 162.132,122.404 157.665 C 124.192 155.874,126.835 153.229,128.277 151.787 C 129.719 150.346,132.364 147.701,134.155 145.910 C 138.280 141.783,141.708 138.357,146.228 133.840 C 150.569 129.503,152.502 127.472,152.502 127.251 C 152.502 126.816,151.927 127.228,150.913 128.388 M186.497 132.514 C 185.711 133.385,184.316 134.842,183.397 135.754 C 182.478 136.665,179.796 139.341,177.437 141.700 C 175.079 144.059,172.471 146.667,171.642 147.496 C 170.813 148.324,168.187 150.951,165.805 153.332 C 163.424 155.714,160.760 158.377,159.886 159.251 C 159.013 160.125,156.386 162.750,154.050 165.085 C 148.546 170.585,147.636 171.570,147.858 171.792 C 147.959 171.893,148.438 171.516,148.921 170.955 C 149.405 170.393,151.856 167.887,154.367 165.386 C 156.878 162.885,159.504 160.267,160.203 159.568 C 160.902 158.869,163.547 156.224,166.081 153.690 C 168.615 151.156,171.260 148.511,171.959 147.812 C 172.658 147.113,175.284 144.487,177.794 141.976 C 180.305 139.465,182.969 136.803,183.713 136.061 C 186.157 133.625,188.403 131.231,188.403 131.063 C 188.403 130.615,187.796 131.077,186.497 132.514 M192.851 135.911 C 192.851 136.222,192.543 136.686,192.166 136.943 C 191.789 137.200,190.037 138.876,188.274 140.666 C 186.510 142.457,183.888 145.102,182.446 146.544 C 181.005 147.986,178.360 150.631,176.569 152.422 C 174.778 154.212,172.133 156.857,170.691 158.299 C 169.249 159.742,166.604 162.384,164.813 164.173 C 160.346 168.632,159.400 169.673,159.613 169.886 C 159.714 169.987,160.193 169.610,160.677 169.049 C 161.161 168.487,163.183 166.411,165.170 164.434 C 167.158 162.458,169.784 159.840,171.008 158.617 C 172.231 157.394,174.894 154.731,176.926 152.699 C 178.957 150.667,181.584 148.040,182.763 146.862 C 183.942 145.683,186.529 143.074,188.511 141.064 C 190.493 139.055,192.424 137.200,192.801 136.943 C 193.495 136.471,193.754 135.346,193.169 135.346 C 192.994 135.346,192.851 135.600,192.851 135.911 M237.331 150.123 C 237.331 150.212,238.958 151.945,240.946 153.974 C 244.715 157.820,245.058 158.165,251.987 165.079 C 254.323 167.411,256.921 170.055,257.759 170.956 C 258.597 171.857,259.361 172.516,259.456 172.421 C 259.689 172.188,258.341 170.789,246.504 158.975 C 245.476 157.948,243.068 155.500,241.152 153.535 C 237.923 150.221,237.331 149.692,237.331 150.123 M247.199 169.579 C 247.210 169.710,248.072 170.604,249.115 171.565 C 250.158 172.526,252.187 174.492,253.623 175.934 C 265.114 187.469,268.785 191.028,268.785 190.636 C 268.785 190.461,267.569 189.137,266.083 187.693 C 263.655 185.333,261.443 183.135,253.933 175.617 C 248.481 170.160,247.150 168.966,247.199 169.579 M123.639 171.452 C 122.880 172.238,122.334 172.956,122.426 173.048 C 122.591 173.213,125.496 170.465,125.496 170.143 C 125.496 169.722,124.912 170.134,123.639 171.452 M297.379 170.146 C 297.379 170.470,299.646 172.580,299.815 172.412 C 299.908 172.319,299.474 171.733,298.851 171.109 C 297.770 170.028,297.379 169.772,297.379 170.146 M123.590 174.923 C 123.590 175.261,124.572 176.090,124.755 175.907 C 124.855 175.807,124.715 175.504,124.445 175.234 C 123.940 174.729,123.590 174.602,123.590 174.923 M275.774 188.577 C 275.774 188.906,277.402 190.377,277.575 190.204 C 277.670 190.109,277.382 189.664,276.935 189.217 C 276.144 188.426,275.774 188.222,275.774 188.577 M7.699 191.263 C 7.699 191.875,7.764 192.125,7.844 191.819 C 7.924 191.513,7.924 191.013,7.844 190.707 C 7.764 190.401,7.699 190.651,7.699 191.263 M389.907 192.216 C 389.907 192.828,389.972 193.078,390.052 192.772 C 390.132 192.466,390.132 191.966,390.052 191.660 C 389.972 191.354,389.907 191.604,389.907 192.216 M100.079 191.898 C 100.079 192.073,100.580 192.216,101.191 192.216 C 101.803 192.216,102.303 192.073,102.303 191.898 C 102.303 191.724,101.803 191.581,101.191 191.581 C 100.580 191.581,100.079 191.724,100.079 191.898 M105.481 191.898 C 105.481 192.073,106.052 192.216,106.751 192.216 C 107.450 192.216,108.022 192.073,108.022 191.898 C 108.022 191.724,107.450 191.581,106.751 191.581 C 106.052 191.581,105.481 191.724,105.481 191.898 M309.134 191.898 C 309.134 192.096,310.988 192.216,314.059 192.216 C 317.130 192.216,318.983 192.096,318.983 191.898 C 318.983 191.700,317.130 191.581,314.059 191.581 C 310.988 191.581,309.134 191.700,309.134 191.898 M250.723 192.726 C 250.143 193.380,250.516 193.691,251.137 193.071 C 251.407 192.800,251.628 192.497,251.628 192.398 C 251.628 192.064,251.156 192.235,250.723 192.726 M151.596 193.361 C 151.017 194.016,151.390 194.327,152.010 193.706 C 152.281 193.436,152.502 193.133,152.502 193.033 C 152.502 192.699,152.030 192.870,151.596 193.361 M205.242 193.033 C 205.242 193.370,206.224 194.199,206.407 194.016 C 206.507 193.917,206.367 193.614,206.097 193.343 C 205.593 192.839,205.242 192.712,205.242 193.033 M329.468 193.033 C 329.468 193.370,330.450 194.199,330.633 194.016 C 330.733 193.917,330.593 193.614,330.323 193.343 C 329.818 192.839,329.468 192.712,329.468 193.033 M392.470 194.440 C 392.470 195.401,392.530 195.794,392.602 195.314 C 392.675 194.833,392.675 194.047,392.602 193.566 C 392.530 193.086,392.470 193.479,392.470 194.440 M281.176 194.296 C 281.176 194.625,282.803 196.096,282.976 195.923 C 283.071 195.827,282.783 195.383,282.336 194.936 C 281.545 194.145,281.176 193.941,281.176 194.296 M286.259 194.939 C 286.259 195.277,287.241 196.106,287.424 195.923 C 287.524 195.823,287.384 195.520,287.114 195.249 C 286.609 194.745,286.259 194.618,286.259 194.939 M333.916 197.299 C 333.916 197.474,334.059 197.617,334.234 197.617 C 334.408 197.617,334.551 197.903,334.551 198.253 C 334.551 198.602,334.694 198.888,334.869 198.888 C 335.341 198.888,335.253 197.956,334.733 197.436 C 334.201 196.903,333.916 196.856,333.916 197.299 M392.466 205.401 C 392.468 206.275,392.530 206.595,392.603 206.112 C 392.676 205.629,392.674 204.914,392.599 204.523 C 392.523 204.132,392.463 204.527,392.466 205.401 M389.907 207.466 C 389.907 208.078,389.972 208.328,390.052 208.022 C 390.132 207.716,390.132 207.216,390.052 206.910 C 389.972 206.604,389.907 206.855,389.907 207.466 M7.699 208.419 C 7.699 209.031,7.764 209.281,7.844 208.975 C 7.924 208.670,7.924 208.169,7.844 207.863 C 7.764 207.558,7.699 207.808,7.699 208.419 M280.540 262.113 C 280.540 264.443,280.664 265.925,280.858 265.925 C 281.052 265.925,281.176 264.443,281.176 262.113 C 281.176 259.783,281.052 258.300,280.858 258.300 C 280.664 258.300,280.540 259.783,280.540 262.113 M101.991 270.907 C 102.000 271.393,102.585 272.103,102.801 271.888 C 102.918 271.771,102.783 271.443,102.500 271.160 C 102.217 270.877,101.988 270.763,101.991 270.907 M193.943 320.969 L 193.010 322.002 194.043 321.068 C 194.611 320.555,195.075 320.091,195.075 320.036 C 195.075 319.790,194.813 320.007,193.943 320.969 M266.861 323.034 L 265.766 324.226 266.958 323.131 C 268.067 322.112,268.295 321.843,268.053 321.843 C 268.000 321.843,267.464 322.379,266.861 323.034 M250.755 323.272 C 250.759 323.971,250.824 324.220,250.900 323.825 C 250.976 323.430,250.973 322.858,250.893 322.554 C 250.814 322.250,250.752 322.573,250.755 323.272 M203.480 325.735 L 202.224 327.085 203.574 325.829 C 204.830 324.661,205.071 324.384,204.830 324.384 C 204.778 324.384,204.171 324.992,203.480 325.735 M226.991 327.959 L 225.735 329.309 227.085 328.053 C 228.341 326.885,228.581 326.608,228.341 326.608 C 228.289 326.608,227.681 327.216,226.991 327.959 M229.801 328.197 C 229.801 329.158,229.861 329.551,229.934 329.071 C 230.006 328.590,230.006 327.804,229.934 327.323 C 229.861 326.843,229.801 327.236,229.801 328.197 M207.610 328.594 L 206.354 329.944 207.705 328.688 C 208.960 327.521,209.201 327.244,208.960 327.244 C 208.909 327.244,208.301 327.851,207.610 328.594 M282.347 327.788 C 282.730 327.860,283.108 328.126,283.189 328.381 C 283.281 328.675,283.317 328.639,283.285 328.283 C 283.253 327.918,282.957 327.710,282.444 327.690 C 281.792 327.665,281.775 327.682,282.347 327.788 M219.222 330.262 C 218.450 331.048,217.890 331.692,217.977 331.692 C 218.065 331.692,218.768 331.048,219.539 330.262 C 220.311 329.476,220.871 328.832,220.784 328.832 C 220.696 328.832,219.993 329.476,219.222 330.262 M255.365 329.375 C 255.760 329.451,256.332 329.448,256.636 329.368 C 256.940 329.289,256.616 329.227,255.917 329.230 C 255.218 329.234,254.970 329.299,255.365 329.375 M254.726 330.645 C 255.119 330.721,255.763 330.721,256.156 330.645 C 256.549 330.569,256.227 330.508,255.441 330.508 C 254.654 330.508,254.333 330.569,254.726 330.645 M151.693 333.678 L 150.437 335.028 151.787 333.772 C 153.043 332.604,153.283 332.327,153.043 332.327 C 152.991 332.327,152.384 332.935,151.693 333.678 M167.826 334.234 C 167.826 334.845,167.891 335.095,167.971 334.790 C 168.051 334.484,168.051 333.983,167.971 333.678 C 167.891 333.372,167.826 333.622,167.826 334.234 M239.629 334.551 C 239.629 335.163,239.694 335.413,239.774 335.107 C 239.854 334.801,239.854 334.301,239.774 333.995 C 239.694 333.689,239.629 333.940,239.629 334.551 M263.055 338.920 L 261.319 340.747 263.145 339.010 C 264.150 338.055,264.972 337.233,264.972 337.183 C 264.972 336.947,264.668 337.223,263.055 338.920 M264.320 339.873 L 263.225 341.064 264.416 339.969 C 265.525 338.950,265.754 338.681,265.511 338.681 C 265.458 338.681,264.922 339.218,264.320 339.873 M267.815 340.508 L 266.720 341.700 267.911 340.605 C 269.020 339.586,269.249 339.317,269.006 339.317 C 268.953 339.317,268.417 339.853,267.815 340.508 " stroke="none" fill="#9c9464" fill-rule="evenodd"></path><path id="path5" d="M178.554 101.850 C 178.554 102.187,179.536 103.016,179.719 102.833 C 179.819 102.733,179.680 102.430,179.409 102.160 C 178.905 101.655,178.554 101.528,178.554 101.850 M166.594 113.472 C 164.361 115.526,161.398 118.584,161.398 118.834 C 161.398 119.009,162.615 117.934,164.103 116.446 C 165.591 114.958,166.949 113.741,167.121 113.741 C 167.294 113.741,167.434 113.598,167.434 113.423 C 167.434 113.019,167.063 113.041,166.594 113.472 M154.406 114.379 C 154.002 114.729,153.757 115.102,153.861 115.206 C 153.966 115.311,154.425 115.024,154.880 114.569 C 155.851 113.598,155.478 113.449,154.406 114.379 M251.628 114.222 C 251.628 114.481,255.222 118.152,265.687 128.586 C 267.303 130.197,269.455 132.394,270.469 133.467 C 271.483 134.540,272.390 135.341,272.484 135.247 C 272.578 135.153,271.749 134.135,270.641 132.985 C 268.697 130.969,267.576 129.841,259.809 122.089 C 257.843 120.127,255.306 117.527,254.170 116.311 C 252.299 114.307,251.628 113.756,251.628 114.222 M151.596 117.110 C 151.017 117.765,151.390 118.076,152.010 117.455 C 152.281 117.185,152.502 116.882,152.502 116.782 C 152.502 116.448,152.030 116.619,151.596 117.110 M149.055 119.977 C 148.644 120.415,148.393 120.858,148.497 120.962 C 148.705 121.170,149.960 119.840,149.960 119.411 C 149.960 119.038,149.901 119.075,149.055 119.977 M146.513 122.519 C 146.102 122.956,145.843 123.392,145.938 123.486 C 146.109 123.658,147.736 122.184,147.736 121.857 C 147.736 121.483,147.225 121.760,146.513 122.519 M143.992 125.039 C 143.593 125.465,143.392 125.814,143.546 125.814 C 143.884 125.814,145.195 124.711,145.195 124.427 C 145.195 124.029,144.705 124.279,143.992 125.039 M140.794 127.920 C 140.383 128.357,140.125 128.793,140.219 128.887 C 140.390 129.059,142.017 127.585,142.017 127.258 C 142.017 126.884,141.506 127.161,140.794 127.920 M138.252 130.461 C 137.842 130.899,137.583 131.334,137.677 131.429 C 137.849 131.600,139.476 130.127,139.476 129.800 C 139.476 129.426,138.965 129.702,138.252 130.461 M188.403 130.444 C 188.403 130.781,189.385 131.610,189.568 131.427 C 189.668 131.327,189.529 131.024,189.258 130.754 C 188.754 130.249,188.403 130.122,188.403 130.444 M136.028 133.003 C 135.618 133.441,135.359 133.876,135.453 133.971 C 135.625 134.142,137.252 132.669,137.252 132.342 C 137.252 131.968,136.741 132.244,136.028 133.003 M133.170 135.866 C 132.585 136.478,132.182 137.054,132.275 137.147 C 132.443 137.314,134.710 135.203,134.710 134.880 C 134.710 134.478,134.161 134.829,133.170 135.866 M126.179 142.527 C 125.600 143.182,125.973 143.493,126.593 142.872 C 126.864 142.602,127.085 142.299,127.085 142.199 C 127.085 141.865,126.613 142.036,126.179 142.527 M123.955 145.069 C 123.376 145.724,123.749 146.034,124.369 145.414 C 124.640 145.144,124.861 144.841,124.861 144.741 C 124.861 144.407,124.389 144.578,123.955 145.069 M118.236 150.470 C 117.657 151.125,118.030 151.435,118.650 150.815 C 118.921 150.545,119.142 150.242,119.142 150.142 C 119.142 149.808,118.670 149.979,118.236 150.470 M115.695 153.012 C 115.116 153.666,115.488 153.977,116.109 153.357 C 116.379 153.086,116.600 152.783,116.600 152.684 C 116.600 152.350,116.129 152.521,115.695 153.012 M237.331 160.445 C 237.331 160.620,237.472 160.763,237.643 160.763 C 237.815 160.763,238.897 161.705,240.049 162.857 C 241.201 164.009,242.221 164.875,242.315 164.781 C 242.409 164.687,241.618 163.780,240.558 162.766 C 237.668 160.002,237.331 159.759,237.331 160.445 M107.714 161.068 C 107.457 161.230,107.343 161.460,107.460 161.577 C 107.578 161.695,107.906 161.560,108.189 161.277 C 108.748 160.718,108.464 160.593,107.714 161.068 M150.596 175.559 C 150.596 175.896,151.578 176.725,151.761 176.542 C 151.861 176.442,151.721 176.139,151.451 175.869 C 150.946 175.364,150.596 175.237,150.596 175.559 M265.290 177.449 C 265.290 177.540,266.060 178.385,267.001 179.326 C 267.942 180.267,268.780 181.229,268.864 181.464 C 268.947 181.698,269.121 181.793,269.250 181.673 C 269.510 181.432,269.293 181.143,267.137 178.860 C 265.752 177.393,265.290 177.040,265.290 177.449 M271.326 183.819 C 271.326 184.157,272.308 184.986,272.491 184.803 C 272.591 184.703,272.452 184.400,272.181 184.130 C 271.677 183.625,271.326 183.498,271.326 183.819 M307.228 194.296 C 307.228 194.625,308.856 196.096,309.028 195.923 C 309.124 195.827,308.836 195.383,308.388 194.936 C 307.597 194.145,307.228 193.941,307.228 194.296 M310.569 197.492 C 311.024 197.947,311.482 198.234,311.587 198.129 C 311.801 197.916,310.466 196.664,310.024 196.664 C 309.868 196.664,310.113 197.037,310.569 197.492 M87.689 198.570 C 87.689 198.754,88.695 198.888,90.071 198.888 C 91.448 198.888,92.454 198.754,92.454 198.570 C 92.454 198.387,91.448 198.253,90.071 198.253 C 88.695 198.253,87.689 198.387,87.689 198.570 M305.957 201.430 C 305.957 202.129,306.100 202.701,306.275 202.701 C 306.450 202.701,306.593 202.129,306.593 201.430 C 306.593 200.731,306.450 200.159,306.275 200.159 C 306.100 200.159,305.957 200.731,305.957 201.430 M262.748 272.915 C 262.748 273.090,263.034 273.233,263.384 273.233 C 263.733 273.233,264.019 273.090,264.019 272.915 C 264.019 272.740,263.733 272.597,263.384 272.597 C 263.034 272.597,262.748 272.740,262.748 272.915 " stroke="none" fill="#54544d" fill-rule="evenodd"></path><path id="path6" d="M63.691 63.622 L 61.795 65.608 63.781 63.711 C 64.873 62.668,65.766 61.775,65.766 61.726 C 65.766 61.491,65.453 61.777,63.691 63.622 M173.346 95.499 C 173.048 96.276,173.113 96.353,173.630 95.836 C 174.170 95.296,174.239 94.996,173.823 94.996 C 173.667 94.996,173.452 95.222,173.346 95.499 M234.790 97.719 C 234.790 98.057,235.771 98.886,235.954 98.703 C 236.054 98.603,235.915 98.300,235.644 98.029 C 235.140 97.525,234.790 97.398,234.790 97.719 M170.341 98.683 C 169.762 99.338,170.135 99.648,170.755 99.028 C 171.026 98.758,171.247 98.455,171.247 98.355 C 171.247 98.021,170.775 98.192,170.341 98.683 M236.705 99.682 C 236.711 99.813,237.151 100.278,237.684 100.715 C 238.780 101.613,243.861 106.676,245.683 108.685 C 246.344 109.415,246.965 109.932,247.063 109.834 C 247.254 109.643,245.997 108.264,241.863 104.127 C 237.468 99.729,236.680 99.050,236.705 99.682 M167.763 101.264 C 167.346 101.733,167.357 101.766,167.868 101.570 C 168.182 101.449,168.499 101.350,168.572 101.350 C 168.646 101.350,168.705 101.207,168.705 101.033 C 168.705 100.565,168.293 100.666,167.763 101.264 M164.940 103.774 C 164.530 104.211,164.271 104.647,164.365 104.741 C 164.537 104.913,166.164 103.439,166.164 103.112 C 166.164 102.738,165.652 103.015,164.940 103.774 M179.825 103.106 C 179.825 103.428,182.731 106.176,182.896 106.010 C 182.988 105.918,182.410 105.189,181.612 104.391 C 180.239 103.018,179.825 102.721,179.825 103.106 M162.081 106.626 C 161.502 107.280,161.874 107.591,162.495 106.971 C 162.765 106.700,162.986 106.397,162.986 106.298 C 162.986 105.964,162.515 106.135,162.081 106.626 M159.857 109.167 C 159.278 109.822,159.650 110.133,160.271 109.512 C 160.541 109.242,160.763 108.939,160.763 108.839 C 160.763 108.506,160.291 108.676,159.857 109.167 M156.680 112.344 C 156.101 112.999,156.473 113.310,157.094 112.690 C 157.364 112.419,157.585 112.116,157.585 112.016 C 157.585 111.683,157.114 111.854,156.680 112.344 M249.087 112.016 C 249.087 112.354,250.069 113.183,250.252 113.000 C 250.351 112.900,250.212 112.597,249.941 112.326 C 249.437 111.822,249.087 111.695,249.087 112.016 M200.159 113.423 C 200.159 113.598,200.295 113.741,200.462 113.741 C 200.629 113.741,201.138 114.114,201.593 114.569 C 202.049 115.024,202.507 115.311,202.612 115.206 C 202.717 115.102,202.458 114.732,202.037 114.384 C 201.615 114.037,201.098 113.607,200.887 113.429 C 200.402 113.020,200.159 113.018,200.159 113.423 M157.318 122.844 C 156.035 124.155,155.060 125.301,155.150 125.391 C 155.311 125.552,160.127 120.895,160.127 120.577 C 160.127 120.121,159.445 120.672,157.318 122.844 M242.415 165.062 C 242.415 165.155,242.900 165.717,243.492 166.309 C 244.085 166.902,244.637 167.576,244.720 167.808 C 244.802 168.039,244.975 168.131,245.104 168.011 C 245.347 167.786,245.251 167.641,243.718 165.925 C 242.853 164.958,242.415 164.667,242.415 165.062 M149.647 174.322 C 149.657 174.809,150.242 175.519,150.457 175.304 C 150.575 175.186,150.440 174.858,150.157 174.575 C 149.874 174.293,149.645 174.178,149.647 174.322 M262.113 174.274 C 262.113 174.596,265.018 177.343,265.184 177.178 C 265.276 177.086,264.698 176.357,263.899 175.558 C 262.526 174.185,262.113 173.888,262.113 174.274 M308.499 191.762 C 308.499 192.100,309.481 192.929,309.664 192.746 C 309.764 192.646,309.624 192.343,309.354 192.072 C 308.849 191.568,308.499 191.441,308.499 191.762 M84.512 198.570 C 84.512 198.745,85.226 198.888,86.100 198.888 C 86.974 198.888,87.689 198.745,87.689 198.570 C 87.689 198.396,86.974 198.253,86.100 198.253 C 85.226 198.253,84.512 198.396,84.512 198.570 M305.957 211.438 C 305.957 217.051,306.071 220.175,306.275 220.175 C 306.479 220.175,306.593 217.051,306.593 211.438 C 306.593 205.825,306.479 202.701,306.275 202.701 C 306.071 202.701,305.957 205.825,305.957 211.438 M157.585 267.355 C 157.585 268.141,157.728 268.785,157.903 268.785 C 158.078 268.785,158.221 268.141,158.221 267.355 C 158.221 266.569,158.078 265.925,157.903 265.925 C 157.728 265.925,157.585 266.569,157.585 267.355 M264.476 340.032 L 263.542 341.064 264.575 340.131 C 265.538 339.261,265.754 338.999,265.508 338.999 C 265.454 338.999,264.989 339.464,264.476 340.032 " stroke="none" fill="#4c4c44" fill-rule="evenodd"></path><path id="path7" d="M183.002 106.289 C 183.002 106.618,184.630 108.089,184.803 107.916 C 184.898 107.821,184.610 107.377,184.163 106.930 C 183.372 106.139,183.002 105.935,183.002 106.289 M198.253 111.373 C 198.253 111.702,199.880 113.173,200.053 113.000 C 200.148 112.904,199.860 112.460,199.413 112.013 C 198.622 111.222,198.253 111.018,198.253 111.373 M200.159 123.763 C 200.159 124.092,201.786 125.563,201.959 125.391 C 202.055 125.295,201.766 124.851,201.319 124.404 C 200.528 123.613,200.159 123.409,200.159 123.763 M153.124 126.781 C 152.389 127.487,151.866 128.144,151.963 128.241 C 152.060 128.338,152.797 127.760,153.600 126.957 C 155.398 125.159,154.975 125.002,153.124 126.781 M190.310 132.338 C 190.310 132.663,192.577 134.772,192.746 134.604 C 192.839 134.511,192.405 133.925,191.782 133.302 C 190.701 132.220,190.310 131.965,190.310 132.338 M245.274 168.239 C 245.274 168.564,247.542 170.674,247.710 170.506 C 247.803 170.412,247.369 169.826,246.746 169.203 C 245.665 168.122,245.274 167.866,245.274 168.239 M134.441 170.497 C 133.856 171.108,133.453 171.685,133.546 171.777 C 133.714 171.945,135.981 169.834,135.981 169.510 C 135.981 169.108,135.432 169.460,134.441 170.497 M258.936 171.437 C 258.936 171.606,259.799 172.436,261.333 173.741 C 261.610 173.977,261.935 174.065,262.054 173.936 C 262.174 173.807,262.082 173.634,261.851 173.552 C 261.619 173.470,260.945 172.917,260.352 172.325 C 259.305 171.277,258.936 171.046,258.936 171.437 M132.010 172.845 C 129.334 175.329,127.683 177.034,127.820 177.171 C 127.914 177.265,128.934 176.400,130.086 175.248 C 131.238 174.096,132.320 173.153,132.492 173.153 C 132.663 173.153,132.804 173.010,132.804 172.836 C 132.804 172.445,132.435 172.450,132.010 172.845 M108.022 194.440 C 108.022 195.711,108.158 196.664,108.340 196.664 C 108.522 196.664,108.658 195.711,108.658 194.440 C 108.658 193.169,108.522 192.216,108.340 192.216 C 108.158 192.216,108.022 193.169,108.022 194.440 M312.311 195.641 C 312.311 195.777,312.618 196.099,312.993 196.356 C 313.368 196.613,314.154 197.292,314.740 197.866 C 315.327 198.440,315.806 198.766,315.806 198.592 C 315.806 198.418,315.447 197.948,315.008 197.549 C 314.570 197.150,313.861 196.501,313.434 196.108 C 312.619 195.357,312.311 195.229,312.311 195.641 M81.970 198.570 C 81.970 198.745,82.542 198.888,83.241 198.888 C 83.940 198.888,84.512 198.745,84.512 198.570 C 84.512 198.396,83.940 198.253,83.241 198.253 C 82.542 198.253,81.970 198.396,81.970 198.570 M307.228 198.570 C 307.228 198.745,307.800 198.888,308.499 198.888 C 309.198 198.888,309.770 198.745,309.770 198.570 C 309.770 198.396,309.198 198.253,308.499 198.253 C 307.800 198.253,307.228 198.396,307.228 198.570 M281.176 202.065 C 281.176 203.124,281.317 203.971,281.493 203.971 C 281.670 203.971,281.811 203.124,281.811 202.065 C 281.811 201.006,281.670 200.159,281.493 200.159 C 281.317 200.159,281.176 201.006,281.176 202.065 M305.957 227.800 C 305.957 232.671,306.072 235.425,306.275 235.425 C 306.478 235.425,306.593 232.671,306.593 227.800 C 306.593 222.928,306.478 220.175,306.275 220.175 C 306.072 220.175,305.957 222.928,305.957 227.800 M298.650 260.365 C 298.650 263.437,298.769 265.290,298.967 265.290 C 299.166 265.290,299.285 263.437,299.285 260.365 C 299.285 257.294,299.166 255.441,298.967 255.441 C 298.769 255.441,298.650 257.294,298.650 260.365 M291.342 265.608 C 291.342 265.799,292.666 265.925,294.678 265.925 C 296.690 265.925,298.014 265.799,298.014 265.608 C 298.014 265.416,296.690 265.290,294.678 265.290 C 292.666 265.290,291.342 265.416,291.342 265.608 M157.585 269.420 C 157.585 269.770,157.728 270.056,157.903 270.056 C 158.078 270.056,158.221 269.770,158.221 269.420 C 158.221 269.071,158.078 268.785,157.903 268.785 C 157.728 268.785,157.585 269.071,157.585 269.420 M153.137 272.915 C 153.137 273.097,154.091 273.233,155.361 273.233 C 156.632 273.233,157.585 273.097,157.585 272.915 C 157.585 272.733,156.632 272.597,155.361 272.597 C 154.091 272.597,153.137 272.733,153.137 272.915 M252.899 272.915 C 252.899 273.112,254.647 273.233,257.506 273.233 C 260.365 273.233,262.113 273.112,262.113 272.915 C 262.113 272.718,260.365 272.597,257.506 272.597 C 254.647 272.597,252.899 272.718,252.899 272.915 M265.925 272.915 C 265.925 273.094,266.826 273.233,267.990 273.233 C 269.155 273.233,270.056 273.094,270.056 272.915 C 270.056 272.736,269.155 272.597,267.990 272.597 C 266.826 272.597,265.925 272.736,265.925 272.915 " stroke="none" fill="#444444" fill-rule="evenodd"></path><path id="path8" d="M67.673 63.701 C 66.901 64.488,66.341 65.131,66.428 65.131 C 66.516 65.131,67.219 64.488,67.990 63.701 C 68.762 62.915,69.322 62.272,69.235 62.272 C 69.147 62.272,68.444 62.915,67.673 63.701 M63.686 67.752 L 62.431 69.102 63.781 67.847 C 64.523 67.156,65.131 66.548,65.131 66.496 C 65.131 66.256,64.854 66.496,63.686 67.752 M205.878 93.256 C 205.878 93.347,206.628 94.196,207.546 95.143 C 208.463 96.090,209.610 97.323,210.094 97.883 C 210.578 98.444,211.056 98.819,211.157 98.718 C 211.258 98.618,210.896 98.060,210.353 97.480 C 209.809 96.900,208.661 95.675,207.801 94.758 C 206.348 93.208,205.878 92.841,205.878 93.256 M211.914 99.626 C 211.914 99.963,212.896 100.792,213.079 100.609 C 213.179 100.509,213.039 100.206,212.769 99.936 C 212.265 99.431,211.914 99.304,211.914 99.626 M175.377 104.555 C 174.241 105.771,172.263 107.845,170.980 109.165 C 169.697 110.485,168.724 111.641,168.817 111.735 C 168.911 111.828,169.960 110.885,171.150 109.639 C 172.339 108.394,174.349 106.307,175.616 105.003 C 176.882 103.699,177.919 102.558,177.919 102.467 C 177.919 102.001,177.249 102.551,175.377 104.555 M211.914 110.110 C 211.914 110.448,212.896 111.276,213.079 111.093 C 213.179 110.994,213.039 110.691,212.769 110.420 C 212.265 109.916,211.914 109.789,211.914 110.110 M209.055 121.989 C 209.055 122.274,210.426 123.676,213.680 126.719 C 214.306 127.304,214.900 127.700,215.001 127.599 C 215.102 127.498,214.726 127.019,214.165 126.535 C 213.605 126.051,212.225 124.759,211.100 123.664 C 209.975 122.568,209.055 121.815,209.055 121.989 M273.868 136.934 C 273.868 137.109,274.005 137.252,274.171 137.252 C 274.338 137.252,274.847 137.624,275.303 138.080 C 275.758 138.535,276.216 138.822,276.321 138.717 C 276.426 138.612,276.167 138.242,275.746 137.895 C 275.325 137.548,274.807 137.118,274.596 136.940 C 274.111 136.531,273.868 136.529,273.868 136.934 M277.045 139.641 C 277.045 139.921,281.125 144.093,289.198 152.069 C 290.814 153.666,292.384 155.301,292.687 155.702 C 292.990 156.103,293.326 156.343,293.434 156.235 C 293.665 156.004,293.031 155.282,289.515 151.779 C 288.073 150.342,285.428 147.706,283.637 145.922 C 281.846 144.137,279.738 141.965,278.952 141.094 C 277.653 139.656,277.045 139.193,277.045 139.641 M127.450 141.256 C 126.871 141.911,127.244 142.222,127.864 141.601 C 128.135 141.331,128.356 141.028,128.356 140.928 C 128.356 140.595,127.884 140.765,127.450 141.256 M125.258 143.784 C 124.790 144.291,124.751 144.559,125.145 144.559 C 125.416 144.559,125.923 143.603,125.742 143.434 C 125.694 143.389,125.477 143.546,125.258 143.784 M122.367 146.665 C 121.956 147.102,121.697 147.538,121.792 147.632 C 121.963 147.804,123.590 146.330,123.590 146.003 C 123.590 145.629,123.079 145.906,122.367 146.665 M120.192 148.828 C 119.984 149.066,119.626 149.327,119.398 149.408 C 119.170 149.489,119.084 149.664,119.206 149.796 C 119.329 149.928,119.661 149.804,119.944 149.522 C 120.227 149.239,120.591 149.007,120.753 149.007 C 120.916 149.007,121.048 148.864,121.048 148.689 C 121.048 148.248,120.644 148.313,120.192 148.828 M116.966 151.741 C 116.387 152.396,116.759 152.706,117.380 152.086 C 117.650 151.815,117.871 151.513,117.871 151.413 C 117.871 151.079,117.399 151.250,116.966 151.741 M230.659 153.305 C 230.659 153.708,237.021 160.225,237.220 160.027 C 237.313 159.933,236.340 158.785,235.057 157.475 C 233.774 156.165,232.367 154.658,231.930 154.125 C 231.202 153.237,230.659 152.887,230.659 153.305 M114.297 154.477 C 113.464 155.520,113.628 155.821,114.535 154.914 C 114.972 154.477,115.330 154.041,115.330 153.946 C 115.330 153.560,114.821 153.822,114.297 154.477 M111.882 157.149 C 111.472 157.587,111.213 158.022,111.307 158.117 C 111.479 158.288,113.106 156.815,113.106 156.488 C 113.106 156.114,112.594 156.390,111.882 157.149 M294.202 157.123 C 294.202 157.452,295.829 158.923,296.002 158.750 C 296.097 158.655,295.809 158.211,295.362 157.763 C 294.571 156.973,294.202 156.769,294.202 157.123 M109.341 159.691 C 108.930 160.129,108.671 160.564,108.765 160.658 C 108.937 160.830,110.564 159.357,110.564 159.030 C 110.564 158.656,110.053 158.932,109.341 159.691 M296.743 159.693 C 296.743 159.978,298.055 161.080,298.395 161.080 C 298.551 161.080,298.321 160.723,297.884 160.286 C 297.092 159.493,296.743 159.312,296.743 159.693 M106.163 162.550 C 105.753 162.988,105.494 163.423,105.588 163.518 C 105.760 163.689,107.387 162.216,107.387 161.889 C 107.387 161.515,106.876 161.791,106.163 162.550 M299.921 162.533 C 299.921 162.870,300.903 163.699,301.086 163.516 C 301.185 163.416,301.046 163.113,300.775 162.843 C 300.271 162.338,299.921 162.211,299.921 162.533 M103.257 165.554 C 102.645 166.251,101.808 167.183,101.396 167.624 C 100.984 168.065,100.736 168.515,100.845 168.624 C 100.954 168.733,101.291 168.495,101.594 168.095 C 101.897 167.695,102.752 166.744,103.495 165.980 C 104.237 165.217,104.845 164.517,104.845 164.425 C 104.845 163.990,104.271 164.398,103.257 165.554 M302.462 165.074 C 302.462 165.412,303.444 166.241,303.627 166.058 C 303.727 165.958,303.588 165.655,303.317 165.384 C 302.813 164.880,302.462 164.753,302.462 165.074 M98.539 170.497 C 97.954 171.108,97.552 171.685,97.644 171.777 C 97.812 171.945,100.079 169.834,100.079 169.510 C 100.079 169.108,99.531 169.460,98.539 170.497 M147.736 172.802 C 147.736 172.958,147.962 173.172,148.239 173.278 C 149.016 173.576,149.093 173.512,148.576 172.994 C 148.036 172.454,147.736 172.386,147.736 172.802 M94.408 174.306 C 93.997 174.743,93.738 175.179,93.833 175.273 C 94.004 175.445,95.631 173.971,95.631 173.644 C 95.631 173.270,95.120 173.547,94.408 174.306 M89.007 180.025 C 88.596 180.462,88.337 180.898,88.432 180.992 C 88.603 181.164,90.230 179.690,90.230 179.363 C 90.230 178.989,89.719 179.266,89.007 180.025 M269.420 181.905 C 269.420 182.234,271.048 183.705,271.221 183.532 C 271.316 183.437,271.028 182.993,270.580 182.545 C 269.789 181.754,269.420 181.550,269.420 181.905 M327.879 190.564 C 327.879 191.006,329.131 192.341,329.345 192.127 C 329.449 192.023,329.163 191.564,328.707 191.109 C 328.252 190.653,327.879 190.408,327.879 190.564 M305.957 193.033 C 305.957 193.370,306.939 194.199,307.122 194.016 C 307.222 193.917,307.082 193.614,306.812 193.343 C 306.307 192.839,305.957 192.712,305.957 193.033 M330.103 193.025 C 330.103 193.354,331.731 194.825,331.904 194.652 C 331.999 194.557,331.711 194.112,331.263 193.665 C 330.472 192.874,330.103 192.670,330.103 193.025 M310.405 193.668 C 310.405 194.006,311.387 194.835,311.570 194.652 C 311.670 194.552,311.530 194.249,311.260 193.979 C 310.755 193.474,310.405 193.347,310.405 193.668 M92.454 198.570 C 92.454 198.763,93.831 198.888,95.949 198.888 C 98.067 198.888,99.444 198.763,99.444 198.570 C 99.444 198.378,98.067 198.253,95.949 198.253 C 93.831 198.253,92.454 198.378,92.454 198.570 " stroke="none" fill="#5c6454" fill-rule="evenodd"></path></g></svg>